<svg id="accent_radiowave" xmlns="http://www.w3.org/2000/svg" xmlns:xlink="http://www.w3.org/1999/xlink" width="305" height="305" viewBox="0 0 305 305">
  <defs>
    <clipPath id="clip-path">
      <rect id="Rectangle_2705" data-name="Rectangle 2705" width="305" height="305" transform="translate(19254 11390)" fill="#fff"/>
    </clipPath>
  </defs>
  <g id="accent_radiowave-2" data-name="accent_radiowave" transform="translate(-19254 -11390)" clip-path="url(#clip-path)">
    <g id="Spiral" transform="translate(19819.369 11955.368) rotate(180)" opacity="0.999" style="isolation: isolate">
      <g id="Group_2440" data-name="Group 2440" transform="translate(0 0)" opacity="0.4">
        <g id="Group_2426" data-name="Group 2426" opacity="0.1">
          <path id="Path_4050" data-name="Path 4050" d="M260.375,8.762a251.656,251.656,0,0,1,97.94,483.419A251.655,251.655,0,0,1,162.422,28.557a249.952,249.952,0,0,1,97.954-19.8m0-8.762A260.423,260.423,0,0,0,159,500.257,260.421,260.421,0,0,0,361.738,20.494,258.482,258.482,0,0,0,260.375,0Z" fill="#626593"/>
        </g>
        <g id="Group_2427" data-name="Group 2427" transform="translate(19.369 19.368)" opacity="0.2">
          <path id="Path_4051" data-name="Path 4051" d="M241.007,8.76A232.3,232.3,0,0,1,331.43,454.981,232.293,232.293,0,0,1,150.6,27.033,230.694,230.694,0,0,1,241.007,8.76m0-8.76a241.049,241.049,0,0,0-93.818,463.043A241.05,241.05,0,0,0,334.825,18.957,239.455,239.455,0,0,0,241.007,0Z" fill="#626593"/>
        </g>
        <g id="Group_2428" data-name="Group 2428" transform="translate(38.751 38.737)" opacity="0.3">
          <path id="Path_4052" data-name="Path 4052" d="M221.624,8.759a212.812,212.812,0,0,1,150.528,363.4A212.924,212.924,0,1,1,221.624,8.759m0-8.759A221.673,221.673,0,0,0,135.35,425.816,221.675,221.675,0,0,0,307.9,17.421,220.426,220.426,0,0,0,221.624,0Z" fill="#626593"/>
        </g>
        <g id="Group_2429" data-name="Group 2429" transform="translate(58.106 58.105)" opacity="0.4">
          <path id="Path_4053" data-name="Path 4053" d="M202.269,8.757a195.689,195.689,0,0,1,39.009,3.927A192.4,192.4,0,0,1,310.457,41.8a194.148,194.148,0,0,1,70.123,85.144,192.475,192.475,0,0,1,11.274,36.313,195.71,195.71,0,0,1,0,78.016,192.382,192.382,0,0,1-29.117,69.177,194.153,194.153,0,0,1-85.146,70.121,192.486,192.486,0,0,1-36.314,11.274,195.723,195.723,0,0,1-78.018,0,192.389,192.389,0,0,1-69.179-29.116,194.145,194.145,0,0,1-70.123-85.144,192.485,192.485,0,0,1-11.274-36.312,195.708,195.708,0,0,1,0-78.016A192.382,192.382,0,0,1,41.8,94.079a194.152,194.152,0,0,1,85.146-70.121A192.483,192.483,0,0,1,163.26,12.683a195.685,195.685,0,0,1,39.009-3.927m0-8.757C90.565,0,0,90.563,0,202.264S90.565,404.528,202.269,404.528s202.269-90.563,202.269-202.264S313.987,0,202.269,0Z" fill="#626593"/>
        </g>
        <g id="Group_2430" data-name="Group 2430" transform="translate(76.419 76.417)" opacity="0.5">
          <path id="Path_4054" data-name="Path 4054" d="M183.956,8.754A175.2,175.2,0,0,1,307.848,307.84,175.207,175.207,0,0,1,60.065,60.063,174.094,174.094,0,0,1,183.956,8.754m0-8.754A183.957,183.957,0,0,0,53.882,314.037,183.961,183.961,0,0,0,314.045,53.881,182.762,182.762,0,0,0,183.956,0Z" fill="#626593"/>
        </g>
        <g id="Group_2431" data-name="Group 2431" transform="translate(94.205 94.216)" opacity="0.6">
          <path id="Path_4055" data-name="Path 4055" d="M166.171,8.779A157.38,157.38,0,0,1,277.459,277.452,157.383,157.383,0,1,1,54.883,54.881a156.325,156.325,0,0,1,111.288-46.1m0-8.779a166.168,166.168,0,0,0-117.5,283.665,166.171,166.171,0,1,0,235-235A165.083,165.083,0,0,0,166.171,0Z" fill="#626593"/>
        </g>
        <g id="Group_2432" data-name="Group 2432" transform="translate(112.517 112.514)" opacity="0.7">
          <path id="Path_4056" data-name="Path 4056" d="M147.858,8.779A139.068,139.068,0,0,1,246.2,246.191,139.071,139.071,0,1,1,49.519,49.518,138.17,138.17,0,0,1,147.858,8.779m0-8.779A147.855,147.855,0,0,0,43.305,252.4,147.858,147.858,0,0,0,252.411,43.3,146.951,146.951,0,0,0,147.858,0Z" fill="#626593"/>
        </g>
        <g id="Group_2433" data-name="Group 2433" transform="translate(130.83 130.826)" opacity="0.8">
          <path id="Path_4057" data-name="Path 4057" d="M129.546,8.779a120.766,120.766,0,0,1,85.39,206.165A120.768,120.768,0,1,1,44.142,44.155a120.035,120.035,0,0,1,85.4-35.376m0-8.779a129.543,129.543,0,0,0-91.6,221.144A129.546,129.546,0,1,0,221.15,37.941,128.659,128.659,0,0,0,129.546,0Z" fill="#626593"/>
        </g>
        <g id="Group_2434" data-name="Group 2434" transform="translate(150.363 150.359)" opacity="0.9">
          <path id="Path_4058" data-name="Path 4058" d="M110.013,8.779A101.241,101.241,0,0,1,181.6,181.612,101.243,101.243,0,1,1,38.422,38.435a100.563,100.563,0,0,1,71.59-29.656m0-8.779A110.009,110.009,0,0,0,32.222,187.8,110.011,110.011,0,1,0,187.8,32.221,109.244,109.244,0,0,0,110.013,0Z" fill="#626593"/>
        </g>
        <g id="Group_2435" data-name="Group 2435" transform="translate(169.883 169.878)">
          <path id="Path_4059" data-name="Path 4059" d="M90.493,8.779A81.706,81.706,0,0,1,148.27,148.266,81.708,81.708,0,1,1,32.716,32.715,81.182,81.182,0,0,1,90.493,8.779m0-8.779A90.494,90.494,0,0,0,26.5,154.48,90.5,90.5,0,0,0,154.484,26.5,89.966,89.966,0,0,0,90.493,0Z" fill="#626593"/>
        </g>
        <g id="Group_2436" data-name="Group 2436" transform="translate(189.416 189.411)">
          <path id="Path_4060" data-name="Path 4060" d="M70.959,8.779a62.182,62.182,0,0,1,43.964,106.155A62.183,62.183,0,1,1,26.982,27,61.848,61.848,0,0,1,70.959,8.779m0-8.779A70.96,70.96,0,0,0,20.781,121.134,70.961,70.961,0,0,0,121.137,20.782,70.494,70.494,0,0,0,70.959,0Z" fill="#626593"/>
        </g>
        <g id="Group_2437" data-name="Group 2437" transform="translate(208.949 208.944)">
          <path id="Path_4061" data-name="Path 4061" d="M51.426,8.779A42.658,42.658,0,0,1,81.59,81.6,42.658,42.658,0,1,1,21.261,21.275a42.377,42.377,0,0,1,30.165-12.5m0-8.779A51.425,51.425,0,0,0,15.062,87.788,51.426,51.426,0,0,0,87.79,15.061,51.078,51.078,0,0,0,51.426,0Z" fill="#626593"/>
        </g>
        <g id="Group_2438" data-name="Group 2438" transform="translate(228.469 228.463)">
          <path id="Path_4062" data-name="Path 4062" d="M31.906,8.779A23.124,23.124,0,0,1,48.258,48.256,23.123,23.123,0,1,1,31.906,8.779m0-8.779A31.9,31.9,0,0,0,9.342,54.456,31.9,31.9,0,0,0,54.457,9.341,31.64,31.64,0,0,0,31.906,0Z" fill="#626593"/>
        </g>
        <g id="Group_2439" data-name="Group 2439" transform="translate(248.003 247.996)">
          <path id="Path_4063" data-name="Path 4063" d="M12.373,8.779A3.348,3.348,0,0,1,14.91,9.835a3.375,3.375,0,0,1,1.056,2.551,3.346,3.346,0,0,1-1.056,2.538,3.376,3.376,0,0,1-2.551,1.056,3.347,3.347,0,0,1-2.538-1.056,3.376,3.376,0,0,1-1.056-2.552A3.345,3.345,0,0,1,9.822,9.835a3.4,3.4,0,0,1,2.551-1.056m0-8.779A12.1,12.1,0,0,0,3.621,3.635,12.114,12.114,0,0,0,0,12.386a12.1,12.1,0,0,0,3.635,8.751,12.117,12.117,0,0,0,8.751,3.621,12.1,12.1,0,0,0,8.752-3.635,12.116,12.116,0,0,0,3.622-8.752,12.137,12.137,0,0,0-3.622-8.751A12.169,12.169,0,0,0,12.373,0Z" fill="#626593"/>
        </g>
      </g>
    </g>
  </g>
</svg>
