<svg id="Arrow-Big" xmlns="http://www.w3.org/2000/svg" width="53.966" height="110.71" viewBox="0 0 53.966 110.71">
  <path id="Arrow" d="M13.483,98.183v.327h0v-.327Zm33.232-8.339c-.164.164-.164.327-.327.491h-.164a.572.572,0,0,1-.327-.163h-.491c-.327,0-.491,0-.655.163s-.327.164-.491.327a1.228,1.228,0,0,1-.819.163h-.327c-.327.164-.491.327-.819.327-.491,0-.819.163-1.146.163-.819.327-1.8.654-2.619.981-.982.327-1.964.818-2.947,1.145-.655.327-1.473.654-2.128.981l-1.964.981c-.491.164-.982.491-1.473.654s-.819.491-1.31.654c-.982.491-1.964,1.145-2.947,1.635-.164.163-.327.327-.491.327a14.4,14.4,0,0,0-1.637.981,21.329,21.329,0,0,0-2.456,1.635,11.62,11.62,0,0,0-2.292,1.635c-.491.327-.819.654-1.31.981a21.307,21.307,0,0,0-2.947,2.453c-.819.654-1.637,1.472-2.456,2.126l-2.456,1.962c-.164.163-.327.163-.491.327,0-.164-.164-.327-.164-.491-.164-.491-.491-1.145-.164-1.635v-.164c0-.654-.164-1.472-.164-2.126,0-.491-.327-.981,0-1.635v-.654c0-.163,0-.491-.164-.491a.571.571,0,0,1-.164-.327v-.491c0-.327.164-.654-.164-.818.164-.164.327-.164.164-.327v-.327a3.515,3.515,0,0,0,0-1.308c0-.327-.164-.654-.164-1.145A5.556,5.556,0,0,1,8.081,97.2,10.05,10.05,0,0,0,7.754,94.1v-.327c-.164-.491-.164-.818-.327-1.308,0-.164-.164-.491-.164-.654,0-.491-.164-.818-.164-1.145a1.08,1.08,0,0,1-.164-.981v-.164c-.982-.654-.819-.817-.819-1.145a.6.6,0,0,0-.164-.491.571.571,0,0,1-.164-.327,1.473,1.473,0,0,1-.164-.818,13.608,13.608,0,0,0-.655-2.453.957.957,0,0,0-1.31-.818,3.2,3.2,0,0,0-1.31.164c-.327.163-.819,0-1.146.327-.327.164-.327.327-.164.654,0,.164,0,.327.164.327,0,.163.164.327.164.491.164.327.164.491.327.818a2.322,2.322,0,0,1,.327.981v.164c.327.327.164.654.327.981a7.964,7.964,0,0,0,.655,1.8l-.327.164c.164.491.164.981.327,1.472a4.769,4.769,0,0,1,.327,1.472v.327c.164.327.164.818.327,1.145v.327a5.8,5.8,0,0,0,.327,1.635,2.779,2.779,0,0,1,.164,1.145v.818a10.045,10.045,0,0,1,.164,2.126.982.982,0,0,0,.164.654c0,.491.164,1.145.164,1.635v1.145a.16.16,0,0,1-.164.164c-.164-.327,0-.654-.327-.981v.491a9.312,9.312,0,0,0,.164,2.126c0,.491.164.981.164,1.308a12.607,12.607,0,0,0,.327,2.453,1.239,1.239,0,0,0,.327.654v-.491a1.473,1.473,0,0,1,.164.818c0,.164,0,.327-.327.327,0,.163.164.491.164.654.164.491.327.654.819.654a1.228,1.228,0,0,1,.819.164c.327.163.819,0,1.146,0h.655c.327,0,.491.163.819,0a5.339,5.339,0,0,0,2.128-.654,1.9,1.9,0,0,0,1.31-.981h.164c.327-.164.491-.491.655-.654,0-.163.164-.163.327-.163a9,9,0,0,0,1.473-1.145c0-.327.327-.491.655-.818s.655-.491.982-.818c.164-.163.491-.327.655-.491s.327-.164.491-.327c.327-.327.982-.654,1.146-1.145,0-.163.164-.163.327-.163s.327-.164.491-.164c.491,0,.491-.491.982-.654v-.163c.327.163.491,0,.491-.164a.16.16,0,0,0,.164-.164c.327-.327.819-.491,1.146-.818a4.339,4.339,0,0,1,.982-.818c.164-.164.327-.327.491-.327a21.681,21.681,0,0,1,3.274-1.962A3.939,3.939,0,0,0,29.035,99c0-.163.164-.163.327-.163.164-.164.327-.164.491-.327.327-.163.491-.491.819-.491l.982-.491a.352.352,0,0,0,.327-.327c-.164-.164-.164-.164-.327-.164v-.163c.327-.164.655-.491.982-.327a.16.16,0,0,0,.164-.163c-.164-.164,0-.164,0-.164.164-.164.327-.164.655-.327.164,0,.327-.327.655-.327l.164-.163c.164,0,.164.163.327.163-.164-.163-.164-.163,0-.327.164,0,.327,0,.327.164.655-.164.655-.164.819-.327-.164,0-.327.164-.655,0,.491-.163.982-.491,1.473-.654.164,0,.164-.164.327-.327.164.163.327,0,.491-.164s.327-.164.655-.164c.164,0,.327-.164.491-.164a7.987,7.987,0,0,1,1.146-.491,2.658,2.658,0,0,0,1.473-.818h.164c.327-.164.819-.164,1.146-.327.164,0,.164,0,.164-.164s.491-.327.491-.164.164.164.164,0c.164,0,.164-.163.327-.327.164.164.491.164.491,0,0-.327.327-.327.491-.327h.491l.491-.491h-.327c0-.491.491-.491.819-.654.164,0,.164.164.327.164,0-.327,0-.327.491-.327-.164,0-.164,0-.164.163,0,.327,0,.327-.327.327a.6.6,0,0,0-.491.163c.327.164.655-.163.819-.163.327,0,.491-.327.655-.654-.164,0-.164,0-.327-.164.164-.163.491-.163.655-.327C47.37,89.844,47.042,89.844,46.715,89.844Zm-27.5,4.088h0l-.164.164c.164,0,.164,0,.164-.164ZM54.736,56.326l-.491-1.962A7.508,7.508,0,0,0,53.1,51.748a6.923,6.923,0,0,0-.819-1.145,17.677,17.677,0,0,0-3.274-2.616l-1.964-.981a13.539,13.539,0,0,0-3.6-1.308c-1.31-.327-2.619-.818-4.093-1.145l-1.964-.491a11.067,11.067,0,0,0-2.292-.327c-.327,0-.655-.164-1.146-.164a16.147,16.147,0,0,0-2.783-.327l-3.438-.491a24.55,24.55,0,0,0-3.6-.327c-.491,0-.982-.164-1.31-.164-.819-.164-1.8-.164-2.619-.327a18.059,18.059,0,0,0-2.947-.327,27.791,27.791,0,0,1-3.6-.654,15.343,15.343,0,0,1-2.619-.654l-2.947-.981c-.491-.164-.819-.491-1.31-.654a6.751,6.751,0,0,1-2.128-1.635c-.164-.164-.164-.164-.164-.327,0-.327-.164-.654-.164-1.145A4.349,4.349,0,0,1,4.807,33.6a.982.982,0,0,0,.164-.654v-.164c.327-.164.327-.491.491-.818a14.376,14.376,0,0,0,.982-1.635l.164-.164a8.987,8.987,0,0,0,1.146-1.472c0-.164.164-.164.327-.327s.327-.164.327-.327c0-.327,0-.491.327-.491l.164-.164a4.339,4.339,0,0,1,.982-.818,7.558,7.558,0,0,0,1.146-1.145c.164-.164.164-.327.327-.491.164-.327.327-.818.819-.654a.16.16,0,0,0,.164-.164c.164,0,.164-.164.327-.164.327-.327.655-.491.819-.818a2.257,2.257,0,0,1,.491-.654c.164-.164.327-.491.655-.327h0a2.936,2.936,0,0,1,1.146-.818c-.164,0-.327.164-.491-.164.327-.164.491-.491.819-.491v.327c.164-.164.491-.164.491-.327,0-.327.327-.327.491-.491l.491-.491a1.634,1.634,0,0,0,.819-.654c0-.164.164-.164.327-.327s.491-.164.327-.491h.327a6.93,6.93,0,0,0,1.146-.818c.164-.327.655-.491.819-.654s.164-.327.327-.491a.851.851,0,0,0,.655-.327c.164-.164.327-.327.491-.327.164-.164.327-.164.491-.327l1.473-.981a1.344,1.344,0,0,0,.819-.818l.164-.164c.327-.327.655-.491.982-.818a7.118,7.118,0,0,0,1.146-.981l.655-.654a2.873,2.873,0,0,0,.819-.654c.164-.164.164-.327.327-.327a12.121,12.121,0,0,0,1.964-2.126.16.16,0,0,1,.164-.164c.327-.164.327-.327.491-.654s.327-.818.491-1.145V5.475a18.325,18.325,0,0,0-.819-2.126,1.633,1.633,0,0,0-.655-.818c-.164-.164-.327-.164-.491-.327a1.237,1.237,0,0,0-1.31-.164q-.246,0-.491.491a8.806,8.806,0,0,1-1.146,2.126,27.958,27.958,0,0,1-1.8,2.289,27.885,27.885,0,0,1-3.11,3.107,11.467,11.467,0,0,1-1.637,1.308c-.655.654-1.473,1.145-2.128,1.8-.491.327-.982.818-1.473,1.145l-2.456,1.962L11.846,19.21a14.753,14.753,0,0,1-1.637,1.472,14.9,14.9,0,0,1-1.637,1.635L7.59,23.3a27.163,27.163,0,0,0-2.128,2.289c-.491.654-.982,1.145-1.473,1.8A10.642,10.642,0,0,0,1.533,31.8,4.524,4.524,0,0,0,1.7,35.07l.491.981A7.37,7.37,0,0,0,3.825,38.34,10.587,10.587,0,0,0,5.3,39.648,23.948,23.948,0,0,0,7.426,41.12a12.214,12.214,0,0,0,1.964,1.145,14.156,14.156,0,0,0,3.438,1.145c.164,0,.327,0,.327.164.327.327.819.327,1.146.491.491.164.819.164,1.31.327s.982.164,1.637.327h.327a1.084,1.084,0,0,1,.982.164.6.6,0,0,0,.491.164h.327c.327,0,.819.164,1.146.164s.491.164.819.164a4.537,4.537,0,0,1,1.473.164c.655,0,1.146.164,1.8.164.491,0,.982.164,1.637.164a2.43,2.43,0,0,1,1.146.164c.819.164,1.637.164,2.292.327s1.31.164,1.964.327c.819.164,1.473.164,2.292.327h.982c.327,0,.819.164,1.146.164a1.228,1.228,0,0,1,.819.164,2.329,2.329,0,0,0,.982.327c.491.164.982.164,1.473.327.327.164.819.164,1.146.327a.985.985,0,0,0,.655.164,1.905,1.905,0,0,1,1.637.327,2.329,2.329,0,0,0,.982.327c.164,0,.164,0,.327.164.164,0,.327.164.491.327.491.164.819.164,1.31.327a7.985,7.985,0,0,0,1.146.491.985.985,0,0,0,.655.164,9.781,9.781,0,0,1,1.8.981,9.14,9.14,0,0,0,1.31.818,1.675,1.675,0,0,1,.819.981,4.984,4.984,0,0,1,0,3.761,10.969,10.969,0,0,1-.982,2.453c-.327.491-.655,1.145-.982,1.635-.819.981-1.473,1.962-2.292,2.943l-.982.981L45.242,66.3c-.327.327-.491.654-.819.818a10.588,10.588,0,0,1-1.473,1.308c-.655.654-1.31,1.145-1.964,1.8a19.613,19.613,0,0,0-1.964,1.8l-1.473,1.472c-.655.654-1.31,1.145-1.964,1.8-.491.327-.819.818-1.31,1.145a7.558,7.558,0,0,0-1.146,1.145c-.491.491-.982.818-1.473,1.308a9.872,9.872,0,0,0-1.31,1.308c-.491.491-.982.818-1.473,1.308L27.725,82.65a10.587,10.587,0,0,0-1.473,1.308c-.164.164-.327.491-.655.654-.491.327-.819.818-1.31,1.145a4.336,4.336,0,0,0-.819.981l-.327.327c-.164.164-.164.491-.491.491a3.57,3.57,0,0,0-.819.654c-.164.327-.491.491-.655.654l-.327.327-.327.327c-.164.327-.491.491-.655.818-.164.164-.491.164-.327.654l-.164.164c-.327.491-.819.818-1.146,1.308-.164.164-.327.491-.491.491-.327.164-.491.491-.655.654s-.164.491-.491.491c0,.164,0,.491-.327.491v.164a.434.434,0,0,1-.491.491v.327a5.441,5.441,0,0,0-.982,1.635,7.107,7.107,0,0,0-.655,1.145c.491.327-.164.654,0,.981.164,0,.327.164.491.164-.164.164-.164.164-.327.164v.654c0,.164,0,.327.164.327a4.339,4.339,0,0,1,.982-.818.571.571,0,0,0,.164-.327c0-.164,0-.327.164-.327V99c.164-.164,0-.327.164-.491s.164-.327.327-.491a.16.16,0,0,1,.164-.164c.164.164.327,0,.491-.164a6.922,6.922,0,0,0,.819-1.145,6.922,6.922,0,0,0,.819-1.145,2.933,2.933,0,0,0,.819-1.145c0-.164.164-.164.327,0,.164-.164.327-.164.327-.491s.327-.491.491-.818h.164c.164,0,.327-.163.491-.163s.164-.164.327-.164h0v.164c.491,0,.491-.327.819-.491,0-.164-.164-.164-.164-.327h-.327v-.163c.164,0,.327-.164.491-.164.327,0,.491-.164.655-.491.164-.164.164-.327.327-.491-.982,0-.982-.327-1.31-.327.164-.163.327-.163.491-.327.327.327.655,0,.819-.164.164,0,.164-.163.327-.327-.164,0-.164-.164-.327-.164,0-.163.164-.327.327-.163s.164,0,.327,0c.164-.164.164-.164.164-.327a.16.16,0,0,0-.164.164l-.164.164c0-.164,0-.164-.164-.327h.327c0-.164.164-.327.164-.491.164,0,.164.327.491.163,0,.164-.164.164-.164.327h-.164c.164,0,.491.163.655.163.164-.163,0-.327-.164-.327l.491-.491h0c0,.164,0,.164-.164.327a1.277,1.277,0,0,0,.655-.654l.982-.981a.506.506,0,0,1,.164-.327c.164-.163.491-.163.655-.327V85.92c.164-.164.327-.164.491-.327h.327c.327-.327.655-.491.982-.818a2.257,2.257,0,0,0,.491-.654c-.164,0-.164-.164-.327-.327a.16.16,0,0,1,.164-.163c.164,0,.327,0,.327.163a.307.307,0,0,0,.491,0v-.327l-.164-.164h.327c0-.327.327-.327.491-.654a.6.6,0,0,1,.491-.164c0-.164,0-.327.164-.327a3.579,3.579,0,0,0,.819-.491c.164-.164.327-.164.491-.491l.164-.164c.164-.164.327-.164.655-.164a.849.849,0,0,1,.327-.654c.164-.164.164-.327.327-.491a1.105,1.105,0,0,0,.982-.654c.164-.163.164-.491.491-.654a.6.6,0,0,0,.164-.491c.164,0,.491.163.655,0s0-.327-.164-.327c.164-.163.327-.163.491-.327s.327-.164.491-.327c0-.164-.164-.164-.164-.327.164,0,.491-.164.491-.327a2.545,2.545,0,0,0,1.31-.981l.164.164c.164-.164.327-.164.491-.327s.327-.164.491-.327l.655-.654c.327-.491.819-.654,1.146-1.145V72.84a5.744,5.744,0,0,0,1.31-.818c.164-.163.327-.327.491-.327.327,0,.164-.327.327-.491v-.491h.164c.164-.491.655-.491.982-.654l-.327-.327h1.146c0-.327.164-.491.327-.491.327,0,.327-.164.491-.164l.327-.327.164-.164a.571.571,0,0,1,.164-.327c.164-.164,0-.327.164-.491a18.664,18.664,0,0,1,1.8-1.8c.327-.327.655-.491.819-.981,0-.164.164-.164.327-.164h.164c.164-.164.164-.327.327-.491h-.327c.164-.164.327-.164.491-.327s.327-.491.491-.654a9.125,9.125,0,0,0,.819-1.308.849.849,0,0,0,.327-.654.849.849,0,0,1,.327-.654l.164-.164c.164-.327.327-.818.491-1.145a5.192,5.192,0,0,0,.491-1.472c0-.164.164-.327.164-.491C54.736,57.47,54.736,56.816,54.736,56.326ZM14.3,97.2h0v-.327h0C14.465,97.2,14.3,97.2,14.3,97.2Zm7.858-6.54h0v.327H22A.571.571,0,0,1,22.159,90.662Zm.655-.491h0c0-.164,0-.164.164-.327h.164Zm2.128-2.616c.164-.164.164-.164.491,0Zm.655.327c0-.164,0-.327.327-.164C25.761,87.719,25.761,87.719,25.6,87.882Zm4.747-5.069a2.26,2.26,0,0,1-.655.491c-.164,0-.164-.164-.327-.164,0-.163.164-.163.491-.163a2.259,2.259,0,0,1,.655-.491C30.672,82.65,30.672,82.814,30.345,82.814ZM32.8,80.688c0-.491,0-.491.327-.491C33.128,80.361,32.964,80.525,32.8,80.688Zm2.947-3.27c.164-.163.164-.327.327-.327C36.074,77.254,36.074,77.418,35.747,77.418Zm1.637-.818h0c-.164-.164-.164-.164,0-.327V76.6Zm.327-.491.327-.327C38.039,76.11,37.875,76.11,37.711,76.11Zm2.128-2.126h0c.164-.164.164-.164.327-.164h0C40,73.984,40,73.984,39.839,73.984Zm3.438-2.943c.164-.164.164-.164.327-.164C43.6,71.2,43.441,71.2,43.277,71.041Zm.819,0h0v-.327h.164A.506.506,0,0,0,44.1,71.041Zm5.238-5.723c0-.327.164-.327.164-.327h0C49.662,65.155,49.5,65.155,49.334,65.319ZM23.96,88.863Z" transform="translate(-0.934 -1.934)" fill="#20252b"/>
</svg>
