<svg id="Best-Deal-blue" xmlns="http://www.w3.org/2000/svg" width="84.081" height="84.081" viewBox="0 0 84.081 84.081">
  <g id="Best_Deal-badge_blue" transform="translate(10.04 -4.96)">
    <path id="Polygon_1" d="M35,6a2.734,2.734,0,0,1,3.9-.4,3.915,3.915,0,0,1,.8,1l.6,1.2A2.826,2.826,0,0,0,44,9.2c.2-.1.3-.2.5-.3l1.1-.8a2.844,2.844,0,0,1,3.9.6A3.337,3.337,0,0,1,50,9.9l.2,1.4a2.878,2.878,0,0,0,3.2,2.3,4.331,4.331,0,0,0,.5-.1l1.3-.5a2.9,2.9,0,0,1,3.6,1.6,5.019,5.019,0,0,1,.2,1.2l-.1,1.4a2.79,2.79,0,0,0,2.5,3h.5l1.4-.1a2.79,2.79,0,0,1,3,2.5,2.537,2.537,0,0,1-.2,1.2l-.5,1.3a2.9,2.9,0,0,0,1.6,3.6.9.9,0,0,0,.5.1l1.4.2a2.878,2.878,0,0,1,2.3,3.2,3.08,3.08,0,0,1-.5,1.2L70,34.6a2.844,2.844,0,0,0,.6,3.9,2.186,2.186,0,0,0,.5.3l1.2.6a2.826,2.826,0,0,1,1.4,3.7,2.539,2.539,0,0,1-.8,1l-1.1.9a2.734,2.734,0,0,0-.4,3.9c.1.1.2.3.4.4L73,50a2.734,2.734,0,0,1,.4,3.9,3.915,3.915,0,0,1-1,.8l-1.2.6A2.826,2.826,0,0,0,69.8,59c.1.2.2.3.3.5l.8,1.1a2.844,2.844,0,0,1-.6,3.9,3.337,3.337,0,0,1-1.2.5l-1.4.2a2.878,2.878,0,0,0-2.3,3.2,4.331,4.331,0,0,0,.1.5l.5,1.3a2.9,2.9,0,0,1-1.6,3.6,5.019,5.019,0,0,1-1.2.2l-1.4-.1a2.79,2.79,0,0,0-3,2.5v.5l.1,1.4a2.79,2.79,0,0,1-2.5,3,2.537,2.537,0,0,1-1.2-.2l-1.3-.5a2.9,2.9,0,0,0-3.6,1.6.9.9,0,0,0-.1.5L49.9,84a2.878,2.878,0,0,1-3.2,2.3,3.08,3.08,0,0,1-1.2-.5L44.4,85a2.844,2.844,0,0,0-3.9.6,2.186,2.186,0,0,0-.3.5l-.6,1.2a2.826,2.826,0,0,1-3.7,1.4,2.539,2.539,0,0,1-1-.8L34,86.8a2.734,2.734,0,0,0-3.9-.4c-.1.1-.3.2-.4.4L29,88a2.734,2.734,0,0,1-3.9.4,3.915,3.915,0,0,1-.8-1l-.6-1.2A2.826,2.826,0,0,0,20,84.8c-.2.1-.3.2-.5.3l-1.1.8a2.844,2.844,0,0,1-3.9-.6,3.337,3.337,0,0,1-.5-1.2l-.2-1.4a2.878,2.878,0,0,0-3.2-2.3,4.331,4.331,0,0,0-.5.1L8.9,81a2.9,2.9,0,0,1-3.6-1.6,5.019,5.019,0,0,1-.2-1.2l.1-1.4a2.79,2.79,0,0,0-2.5-3H2.2l-1.4.1a2.79,2.79,0,0,1-3-2.5A2.537,2.537,0,0,1-2,70.2l.5-1.3a2.9,2.9,0,0,0-1.6-3.6.9.9,0,0,0-.5-.1L-5,64.9a2.878,2.878,0,0,1-2.3-3.2,3.08,3.08,0,0,1,.5-1.2l.8-1.1a2.844,2.844,0,0,0-.6-3.9,2.186,2.186,0,0,0-.5-.3l-1.2-.6a2.826,2.826,0,0,1-1.4-3.7,2.539,2.539,0,0,1,.8-1l1.1-.9a2.734,2.734,0,0,0,.4-3.9c-.1-.1-.2-.3-.4-.4L-9,44a2.734,2.734,0,0,1-.4-3.9,3.915,3.915,0,0,1,1-.8l1.2-.6A2.826,2.826,0,0,0-5.8,35c-.1-.2-.2-.3-.3-.5l-.8-1.1a2.844,2.844,0,0,1,.6-3.9A3.337,3.337,0,0,1-5.1,29l1.4-.2a2.878,2.878,0,0,0,2.3-3.2,4.331,4.331,0,0,0-.1-.5L-2,23.9A2.9,2.9,0,0,1-.4,20.3a5.019,5.019,0,0,1,1.2-.2l1.4.1a2.79,2.79,0,0,0,3-2.5v-.5l-.1-1.4a2.79,2.79,0,0,1,2.5-3,2.537,2.537,0,0,1,1.2.2l1.3.5a2.9,2.9,0,0,0,3.6-1.6.9.9,0,0,0,.1-.5L14,10a2.878,2.878,0,0,1,3.2-2.3,3.08,3.08,0,0,1,1.2.5l1.2.8a2.844,2.844,0,0,0,3.9-.6,2.186,2.186,0,0,0,.3-.5l.6-1.2a2.826,2.826,0,0,1,3.7-1.4,2.539,2.539,0,0,1,1,.8L30,7.2a2.734,2.734,0,0,0,3.9.4c.1-.1.3-.2.4-.4Z" fill="#39f"/>
    <path id="Description" d="M13.9,31.1a2.94,2.94,0,0,1-1-1.2,4.191,4.191,0,0,1-.4-1.5,2.7,2.7,0,0,1,.8-.7,1.929,1.929,0,0,1,1-.3,4.484,4.484,0,0,1,1.1-.1h1.1c.1,0,.1.1.1,0s0,0,.1.1h1.6a5.663,5.663,0,0,1,1.8.3h.3c.1,0,.2.1.4.1s.3.1.4.1h.3c.1.1.2.2.3.2a1.38,1.38,0,0,1,.4.3v-.2a.758.758,0,0,1,.4.2l.3.3c.1.1.2.2.2.3.1.1.2.2.3.2.1.2.2.3.3.5s.2.3.3.5a.764.764,0,0,1,.2.5.454.454,0,0,1,0,.5v.1a.1.1,0,0,1,.1.1,3.7,3.7,0,0,1-.5,1.1,2.7,2.7,0,0,1-.8.7l-.9.6-.9.6a2.092,2.092,0,0,0,.4.6c.1.2.3.4.4.6a2.092,2.092,0,0,1,.4.6,4.875,4.875,0,0,1,.3.7.215.215,0,0,0,.2.2v.5l.1.5v.4a.215.215,0,0,1-.2.2.367.367,0,0,1,.1.3c0,.1,0,.2-.1.2a5,5,0,0,1-.7.5c-.1.3-.1.4-.2.4s-.1.1-.2.1-.2.1-.4.2a17.416,17.416,0,0,1-2.2.5,8.854,8.854,0,0,1-2.3,0,.367.367,0,0,1-.3.1H15.1l-.1-.1a.1.1,0,0,0-.1-.1.215.215,0,0,1-.2.2.758.758,0,0,1-.4-.2,1.756,1.756,0,0,1-.5-.4l-.4-.4-.3.3c-.1.1-.2.1-.3.2l-.4-.2h-.2l-.2-.2-.1-.2c0-.1-.1-.1-.1-.2l-.2-.2c0-.1.1-.2,0-.3,0-.1-.1-.2-.2-.3.1-.1.1-.2,0-.4a1.268,1.268,0,0,1-.1-.6c0-.1.1-.2.1-.3s.1-.2.1-.3.1-.1.1-.2c.1-.1.1-.1.2-.1v-.5c.1-.1.2-.1.3-.3.1-.1.1-.2.2-.4.1-.1.1-.2.2-.4l.3-.3v-.2a4.349,4.349,0,0,0,.6-.7l.3-.6L14,33a3.508,3.508,0,0,1,.5-.8,1.421,1.421,0,0,1,.2-.6,1.38,1.38,0,0,1,.3-.4,2.186,2.186,0,0,0,.3-.5c.1-.2.1-.4.2-.6a.749.749,0,0,0-.5.1c-.1.1-.2.3-.3.4a.3.3,0,0,1-.4,0C14.2,31.1,14,31.1,13.9,31.1Zm6.9,5.5a4.44,4.44,0,0,0-1.1-.8c-.3-.1-.7-.2-1.1-.3h-2c-.3.4-.5.8-.8,1.2s-.6.9-.9,1.3a2.438,2.438,0,0,0,1.2,0c.4,0,.8-.1,1.1-.1a5.16,5.16,0,0,0,1.1-.2c.4-.1.7-.1,1.1-.2l.3-.3a.6.6,0,0,1,.4-.1.758.758,0,0,0,.4-.2A.265.265,0,0,0,20.8,36.6Zm.2-5.9a8.506,8.506,0,0,0-2.2-.4,6.8,6.8,0,0,0-2,.2,4.349,4.349,0,0,0,.6.7,1.234,1.234,0,0,1,.4.8,4.8,4.8,0,0,0,1.7-.5A2.751,2.751,0,0,0,21,30.7Zm2.5,11.2a.6.6,0,0,1-.1-.4.52.52,0,0,0-.2-.4,1.268,1.268,0,0,1,.1-.6,1.7,1.7,0,0,1,.1-.7c0-.3.1-.5.1-.8a1.854,1.854,0,0,1,.2-.7c.1-.1.1-.2.2-.3l.2-.2c.1-.1.1-.2.2-.2a.367.367,0,0,0,.1-.3c.1,0,.1,0,.2-.1,0-.1.1-.1.2,0,.2-.2.3-.5.5-.7s.3-.4.5-.6.3-.4.5-.6a1.794,1.794,0,0,0,.5-.7c-.1-.2-.2-.5-.3-.7v-.7a1.7,1.7,0,0,1,.1-.7c0-.2.1-.5,0-.7a1.612,1.612,0,0,1,.7-.4c.2-.1.5-.1.8-.2H29a3.751,3.751,0,0,1,1,.1h1.6c.5,0,.9.1,1.4.1a7.844,7.844,0,0,1,1.4.2c.5.1,1,.1,1.7.2v.1h.1a.215.215,0,0,0,.2.2v-.2a14828.864,14828.864,0,0,0,.2.2h.1V32a2.994,2.994,0,0,0,.4.8l.6.6c0,.1,0,.2-.1.2a3980596555318.4,3980596555318.4,0,0,1-.2.2V34a3.49,3.49,0,0,1-.9.6,2.92,2.92,0,0,1-.9.2h-.9c-.3,0-.6-.1-1-.1h-1a4.253,4.253,0,0,0-1.1.2.31.31,0,0,0-.2-.1h-.6a.6.6,0,0,1-.4-.1c-.1.1-.2.1-.4.1h-.4v.4c0,.1-.1.2,0,.4a8.469,8.469,0,0,0,1.7.4,11.627,11.627,0,0,1,1.8.4.1.1,0,0,1-.1.1l-.1.1c.1.1.2.2.2.3.1.1.1.3.2.4s.2.2.2.3a.52.52,0,0,0,.4.2v.4a.758.758,0,0,1-.2.4,6.89,6.89,0,0,0-.8.3,2.354,2.354,0,0,1-.8.2,2.769,2.769,0,0,1-.9.1,3.751,3.751,0,0,1-1-.1H30a.1.1,0,0,1-.1-.1.9.9,0,0,1-.5-.1.9.9,0,0,0-.5-.1,1.421,1.421,0,0,0-.6-.2,1.421,1.421,0,0,1-.6-.2c-.3.3-.6.5-.9.8a6.47,6.47,0,0,0-.8.9,5.638,5.638,0,0,0,1.2.4c.3.1.6.1.9.2l.9.1a3.545,3.545,0,0,1,1.1.3,2.054,2.054,0,0,1,1.1,0,4.034,4.034,0,0,0,1.1,0c.1.1.2.2.2.3.1.1.1.2.2.4,0,.1.1.2.2.3s.2.2.3.2a.349.349,0,0,0,.1.2v.4c0,.1.1.1.2.1a4.125,4.125,0,0,1-1.3,1c-.2.1-.4.1-.6.2a3.788,3.788,0,0,1-1.5,0,7.569,7.569,0,0,0-1.5-.1.367.367,0,0,1-.3-.1.367.367,0,0,0-.3-.1c-.3,0-.8-.1-1.2-.1-.5-.1-.9-.2-1.4-.3a6.943,6.943,0,0,1-1.3-.5A5.973,5.973,0,0,0,23.5,41.9Zm12.4-4.2c.1-.2.1-.3.2-.4v-.4c.1-.2.2-.3.2-.4a.6.6,0,0,0,.1-.4,2.336,2.336,0,0,1,.7-.7A3.552,3.552,0,0,1,38,35c.3-.1.6-.1.9-.2h.9v-.1h0s-.1,0,0-.1a7.388,7.388,0,0,0,2.1,0,15.483,15.483,0,0,1,2.2-.1,16.352,16.352,0,0,1,2.2.2,8.488,8.488,0,0,1,2.2.9.9.9,0,0,0,.1.5c0,.2.1.3.2.5a.756.756,0,0,1,.1.4v.4c.1.2.2.3.2.5a1.268,1.268,0,0,1-.1.6c-.2.1-.3.1-.5.2a.9.9,0,0,1-.5.1,4.418,4.418,0,0,0-1.6-.6l-1.5-.3c-.1-.2-.2-.3-.4-.3s-.4-.1-.6-.1h-.6a.749.749,0,0,1-.5-.1,1.268,1.268,0,0,1-.6.1,1.7,1.7,0,0,1-.7-.1v.2l.3.3a.758.758,0,0,0,.4.2c.1.1.3.2.4.3s.2.2.1.4a1.2,1.2,0,0,1,.8.8,1.3,1.3,0,0,1,0,1,.349.349,0,0,0,.1.2c.1,0,.1,0,.2.1a1.854,1.854,0,0,0,.2.7,1.854,1.854,0,0,1,.2.7c-.1.3-.1.6-.2.8a2.614,2.614,0,0,1-.3.8,5.347,5.347,0,0,1-1.3,1.3,7.973,7.973,0,0,1-1.6.8,13.636,13.636,0,0,1-1.7.4c-.6.1-1.2.1-1.7.2h-.2c-.1,0-.1,0,0-.1a.6.6,0,0,1-.4.1.9.9,0,0,1-.5-.1c-.2,0-.3-.1-.5-.2a.9.9,0,0,0-.5-.1c-.3,0-.3-.1-.4-.2a.6.6,0,0,1-.1-.4l-.1-.1h0c0-.1,0-.1-.1-.1v-.1l.1-.1c.1,0,.1,0,.1-.1V45l-.1-.1v-.1a.52.52,0,0,0,.2-.4.9.9,0,0,1,.1-.5.52.52,0,0,1,.2-.4,1.38,1.38,0,0,1,.4-.3,3.194,3.194,0,0,0,1.4.3,5.7,5.7,0,0,0,1.3-.1c.4-.1.8-.1,1.3-.2l1.2-.3c.1-.1.1-.2.3-.3.1-.1.2-.1.3-.2s.2-.1.3-.2.2-.2.2-.3v-.2a.1.1,0,0,0-.1-.1v-.1l-.1-.1h-.1c-.3-.2-.6-.5-.9-.7s-.5-.4-.8-.6c-.1.1-.3,0-.4,0a2.186,2.186,0,0,0-.5-.3,7.838,7.838,0,0,1-1.4-.5,7.459,7.459,0,0,1-1.2-.7v-.2c0-.1-.1-.1-.2-.1a.758.758,0,0,0-.2-.4C36,38,35.9,37.9,35.9,37.7Zm10.9.7V37.3a1.268,1.268,0,0,1,.1-.6.215.215,0,0,1,.2-.2l.1-.1.1-.3.3.1c.1,0,.2.1.3.1l.3.1c.5.1.9.2,1.4.3l1.5.3,1.8.3c.1-.2.1-.3.2-.3l.1-.1.2-.1a.864.864,0,0,1,.6.3c.1.1.1.2.2.3.3.1.6.1,1,.2.3,0,.7.1,1,.1l1.5.2,1.5.3c.2.1.4.1.6.2s.3.1.5.2l.2.2c0,.1.1.2.1.3.1.1.1.2.2.3a1.612,1.612,0,0,1,.4.7,1.183,1.183,0,0,1-.1,1l-.1.2c-.1,0-.1.1-.2.1l-.2.2-.2-.1h-.9c-.1,0-.2-.1-.3-.1l-.3-.1a5.019,5.019,0,0,0-1.2-.2c-.4-.1-.8-.1-1.3-.2-.3,0-.6-.1-.8-.1l-.7-.1c-.2.3-.4.5-.5.7a2.651,2.651,0,0,1-.5.6c-.2.2-.3.4-.5.6s-.3.5-.5.7-.4.3-.5.5a2.092,2.092,0,0,0-.4.6,1.7,1.7,0,0,0-.6.6c-.1.2-.3.4-.4.6l-.1.2c-.1,0-.1.1-.2.2a.1.1,0,0,1-.1.1c-.1.1-.2.3-.3.4,0,.1-.1.1-.1.2l-.1.1c0,.1-.1.2-.2.3,0,.1,0,.1-.1.2l-.1.2c0,.1-.1.1-.1.2v.2l.1.2v.2a.1.1,0,0,0,.1.1.1.1,0,0,1,.1.1c.1.1.1.2.2.2l.1.3a1.05,1.05,0,0,1-.5.9,1.287,1.287,0,0,1-1.2.1l-.2-.1c0-.1-.1-.1-.1-.2l-.2-.2-.2-.2a.1.1,0,0,0-.1-.1.1.1,0,0,1-.1-.1c-.1-.1-.2-.1-.3-.2l-.3-.1a.349.349,0,0,1,.1-.2.9.9,0,0,1-.1-.5v-.9a.367.367,0,0,0-.1-.3,6.982,6.982,0,0,1,.8-2c.3-.5.7-1,1-1.5.2-.3.4-.5.6-.8a3.508,3.508,0,0,0,.5-.8l.2-.1c.1,0,.1-.1.2-.1a.52.52,0,0,1,.2-.4c.1-.1.2-.3.3-.4s.1-.2.2-.2c.1-.1.1-.1.1-.2-.1,0-.2,0-.2-.1s-.1,0-.2,0a.9.9,0,0,1-.5-.1c-.1,0-.2,0-.2-.1h-.3a.367.367,0,0,1-.3-.1l-.4-.1h-.4l-.9-.2c-.1,0-.2-.1-.3-.1-.1-.1-.2-.1-.3-.2l.1-.4c0-.1-.1-.2-.1-.3l-.2-.1ZM6.5,58.2c-.3-.1-.5-.4-.7-.6a1.884,1.884,0,0,1-.2-.8,2.769,2.769,0,0,1,.1-.9c.1-.3.1-.7.2-1l.3-.3a.758.758,0,0,0,.2-.4c.2-.3.5-.7.7-1a4.671,4.671,0,0,0,.5-1c.1-.1.2-.1.3-.2a8.3,8.3,0,0,0,.6-2.1,14.919,14.919,0,0,0,.2-2.1c0-.1.1-.2.1-.3a.139.139,0,0,0,0-.2c0-.1.1-.2.2-.1l.3.1a1.483,1.483,0,0,0,.1-.7v-.8c.1-.2.3-.4.4-.6a2.186,2.186,0,0,1,.3-.5c.3.2.7.5,1,.7l1,.7c.3.2.6.5.9.7l.9.6a17.383,17.383,0,0,0,1.3,1.5c.4.5.8,1,1.2,1.6a6.7,6.7,0,0,1,.7,1.8,7.387,7.387,0,0,1,0,2.1c0,.1-.1.1-.1.2l-.1.1a.31.31,0,0,1-.1.2l-.1.2a8.008,8.008,0,0,1-2.1,1.5,18.286,18.286,0,0,1-2.5.8,25.123,25.123,0,0,1-2.7.4A20.316,20.316,0,0,0,6.5,58.2Zm4.4-9.5h-.3a8.6,8.6,0,0,1-.1,1.6,7.972,7.972,0,0,1-.3,1.5,5.783,5.783,0,0,1-.5,1.4c-.2.5-.4,1-.7,1.6h.4a.6.6,0,0,0,.4-.1.6.6,0,0,0,.4-.1h.5c.1-.1.2-.1.2-.2.1,0,.2-.1.3-.1.3,0,.7-.1,1-.1a2.92,2.92,0,0,0,.9-.2,2.01,2.01,0,0,0,.8-.4,4.35,4.35,0,0,0,.7-.6.764.764,0,0,0-.2-.5c-.1-.2-.2-.3-.3-.5s-.2-.3-.3-.5a1.421,1.421,0,0,1-.2-.6c-.2-.1-.3-.2-.5-.3l-.3-.3a1.38,1.38,0,0,0-.4-.3,2.186,2.186,0,0,0-.5-.3c-.2-.2-.5-.4-.7-.6,0-.1-.2-.2-.3-.4Zm5.5,11c-.1-.1-.1-.2-.1-.4a.52.52,0,0,0-.2-.4,1.268,1.268,0,0,1,.1-.6,1.7,1.7,0,0,1,.1-.7c0-.2.1-.5.1-.7a1.421,1.421,0,0,1,.2-.6c0-.1.1-.2.2-.3l.2-.2.2-.2a.367.367,0,0,0,.1-.3c.1,0,.1,0,.2-.1,0-.1.1-.1.2,0,.1-.2.3-.4.4-.6a2.651,2.651,0,0,1,.5-.6c.2-.2.3-.4.5-.5.2-.2.3-.4.5-.6-.1-.2-.2-.5-.3-.7v-.7a1.7,1.7,0,0,1,.1-.7c0-.2.1-.5,0-.7a2.092,2.092,0,0,1,.6-.4c.2-.1.5-.1.7-.2h.8a2.769,2.769,0,0,1,.9.1H24c.5,0,.9.1,1.3.1a5.852,5.852,0,0,1,1.3.2c.4.1,1,.1,1.6.2v.1h.1a.215.215,0,0,0,.2.2v-.2h.1a.1.1,0,0,1,.1.1h.1v-.1a1.612,1.612,0,0,0,.4.7l.6.6c0,.1,0,.2-.1.2a3980710444466.571,3980710444466.571,0,0,0-.2.2v.2a5.547,5.547,0,0,1-.8.6,2.92,2.92,0,0,1-.9.2h-.9c-.3,0-.6-.1-.9-.1H25a3.553,3.553,0,0,0-1,.2.31.31,0,0,0-.2-.1h-.5a.756.756,0,0,1-.4-.1c-.1.1-.2.1-.4.1h-.4v.4c0,.1-.1.2,0,.3a9.363,9.363,0,0,0,1.6.4,11.627,11.627,0,0,1,1.8.4v.1l-.1.1c.1.1.2.2.2.3.1.1.1.3.2.4s.1.2.2.3.2.2.3.2v.4a.758.758,0,0,1-.2.4c-.3.1-.5.2-.8.3a2.354,2.354,0,0,1-.8.2c.1-.1-.2-.1-.5-.1a2.769,2.769,0,0,1-.9-.1H23a.1.1,0,0,1-.1-.1.9.9,0,0,1-.5-.1.9.9,0,0,0-.5-.1c-.2-.1-.3-.2-.5-.2a.764.764,0,0,1-.5-.2,3.044,3.044,0,0,0-.8.8c-.3.3-.5.6-.8.9a7.6,7.6,0,0,0,1.1.4c.3.1.6.1.9.2l.9.1a4.508,4.508,0,0,1,1.1.3,2.054,2.054,0,0,1,1.1,0,4.052,4.052,0,0,0,1.1,0c.1.1.2.2.2.3.1.1.1.2.2.4,0,.1.1.2.2.3s.2.2.3.2a.349.349,0,0,0,.1.2v.4c0,.1.1.1.2.1a5.8,5.8,0,0,1-1.2,1c-.2.1-.4.1-.6.2a3.3,3.3,0,0,1-1.4,0c-.4,0-.9-.1-1.5-.1a.367.367,0,0,1-.3-.1.367.367,0,0,0-.3-.1c-.3,0-.7-.1-1.2-.1-.5-.1-.9-.2-1.4-.3a4.328,4.328,0,0,1-1.2-.5,15.56,15.56,0,0,1-1.2-1.1Zm10.2,2.1.3-.1.1-.4c.5-.6,1-1.3,1.5-1.8L30,57.7c.2-.2.3-.4.5-.6s.3-.4.5-.6v-.2c0-.1,0-.1.1-.2.2-.2.4-.3.6-.5l.5-.5a2.651,2.651,0,0,0,.5-.6,4.349,4.349,0,0,1,.7-.6l.2-.1.2.1h.4l.3.1a3.494,3.494,0,0,0,1.3-.5,5.8,5.8,0,0,0,1.2-1l.3-.2.2.3c.1.1.2.1.3.2s.2.1.4.2.5.3.7.4a1.205,1.205,0,0,1,.5.5v.9a2.2,2.2,0,0,1-.1.8c0,.3-.1.6-.1.8V58c0,.4-.1.7-.1,1v1c.1,0,.1,0,.2.1H40v.2a.1.1,0,0,0,.1.1l.1.1a.758.758,0,0,1,.4.2c.1.1.1.2.2.2a3980596555319.245,3980596555319.245,0,0,1,.2.2l.3.2-.3.3a5.547,5.547,0,0,1-.8.6,2.016,2.016,0,0,1-1.1.3V63a2.2,2.2,0,0,1-.1.8,2.353,2.353,0,0,1-.2.8,4.349,4.349,0,0,1-.6.7,3.039,3.039,0,0,1-.7.5l-.9.3a2.719,2.719,0,0,1-.9,0c-.1-.1-.2-.1-.3-.2l-.2-.2-.2-.2-.2-.2.1-.2a.367.367,0,0,0,.1-.3c0-.1-.1-.2-.2-.4l-.1-.1c0-.1-.1-.1-.1-.2l-.2-.5H35a1.077,1.077,0,0,0,.8-.2,2.01,2.01,0,0,0,.4-.8,1.854,1.854,0,0,0-.7-.2H34c-.3,0-.6-.1-.9-.1-.2-.1-.4-.1-.6-.2L32,62v-.3l-.1-.1c0-.1-.1-.2-.1-.3a.9.9,0,0,1,.1-.5c0-.1-.1-.3,0-.4-.1.1-.1.2-.2.2a.31.31,0,0,0-.1.2l-.1.2h-.2l-.1.1v.3l-.2.1-.1.1h-.1c-.1.1-.1.2-.2.3s-.2.2-.2.3c-.1.2-.2.3-.3.5s-.2.3-.2.5l-.1.2c-.1.1-.2.1-.3.2a.367.367,0,0,0-.3.1.367.367,0,0,0-.3.1l-.1.2H28l-.2-.1a1.381,1.381,0,0,0-.3-.4l-.3-.3-.4-.2V62Zm6.5-3.5c-.2.2-.5.4-.7.6h.4a5.019,5.019,0,0,0,1.2.2,4.869,4.869,0,0,0,1.2.1V56.3l-.1.2a4.44,4.44,0,0,0-1.1.8,2.836,2.836,0,0,1-.9,1Zm6.8,7.9c0-.1-.1-.1-.1-.2v-.3a2.354,2.354,0,0,1-.2-.8V64a2.92,2.92,0,0,1,.2-.9c.1-.3.2-.5.3-.8.1-.1.1-.2.2-.4a2.092,2.092,0,0,1,.4-.6,1.756,1.756,0,0,1,.4-.5c0-.2,0-.3.1-.4s.2-.3.3-.4l.1-.1.1-.1a6.726,6.726,0,0,0,.7-1.1,8.65,8.65,0,0,1,.7-1c.4-.6.8-1.2,1.2-1.7a11.781,11.781,0,0,0,1.1-1.9c.1,0,.2-.1.3-.1h.2a5.547,5.547,0,0,0,.8.6,2.994,2.994,0,0,0,.8.4l.2.3a4.875,4.875,0,0,1,.3.7,1.128,1.128,0,0,1-.1.8c-.1.1-.1.1-.2.1a4.348,4.348,0,0,0-.4.7,2.181,2.181,0,0,1-.4.5,2.092,2.092,0,0,0-.4.6,2.507,2.507,0,0,0-.4.7c-.1,0-.1.1-.2.2,0,.1-.1.1-.1.2s-.1.1-.1.2l-.2.2a2.177,2.177,0,0,1-.5.8c-.2.2-.3.4-.5.6-.3.4-.5.7-.8,1.1a3.79,3.79,0,0,0-.6,1.3.6.6,0,0,1,.4.1.52.52,0,0,1,.4.2,3.788,3.788,0,0,1,1.5,0l1.5.3,1.2.3.2.2c.1,0,.1,0,.2.1h.1a.1.1,0,0,1,.1.1,1.756,1.756,0,0,0,.4.5c.1.1.3.2.4.3s.3.2.4.3.3.2.4.4l-.1,1a.774.774,0,0,1,.1.3.349.349,0,0,1-.1.2v.2h-.5c-.1,0-.2.1-.3.1s-.3-.1-.4-.1a1.949,1.949,0,0,0-.8-.1,3.7,3.7,0,0,0-1.1-.5c-.2,0-.3-.1-.5-.1s-.3.2-.5.2-.4-.1-.6-.1a4.331,4.331,0,0,1-.5-.1H43.1a7.719,7.719,0,0,1-1.5-.2,2.748,2.748,0,0,1-1.6-1v-.2c0-.1,0-.1-.1-.2Z" fill="#fff"/>
  </g>
</svg>
