<svg id="Cheap-Deal" xmlns="http://www.w3.org/2000/svg" width="84.001" height="84.001" viewBox="0 0 84.001 84.001">
  <path id="Union_7" data-name="Union 7" d="M-4515-10728a42,42,0,0,1,42-42,42,42,0,0,1,42,42,42,42,0,0,1-42,42A42,42,0,0,1-4515-10728Zm1,0a41.058,41.058,0,0,0,41,41,41.056,41.056,0,0,0,41-41,41.057,41.057,0,0,0-41-41A41.059,41.059,0,0,0-4514-10728Zm7,0a34.1,34.1,0,0,1,34-34,34.1,34.1,0,0,1,34,34,34.1,34.1,0,0,1-34,34A34.1,34.1,0,0,1-4507-10728Zm1,0a33.033,33.033,0,0,0,33,33,33.031,33.031,0,0,0,33-33,33.031,33.031,0,0,0-33-33A33.033,33.033,0,0,0-4506-10728Zm7,0a26.077,26.077,0,0,1,26-26,26.078,26.078,0,0,1,26,26,26.076,26.076,0,0,1-26,26A26.075,26.075,0,0,1-4499-10728Zm1,0a25.008,25.008,0,0,0,25,25,25.009,25.009,0,0,0,25-25,25.01,25.01,0,0,0-25-25A25.009,25.009,0,0,0-4498-10728Zm7,0a18.051,18.051,0,0,1,18-18,18.052,18.052,0,0,1,18,18,18.054,18.054,0,0,1-18,18A18.054,18.054,0,0,1-4491-10728Zm1,0a16.986,16.986,0,0,0,17,17,16.987,16.987,0,0,0,17-17,16.985,16.985,0,0,0-17-17A16.985,16.985,0,0,0-4490-10728Zm7,0a10.028,10.028,0,0,1,10-10,10.03,10.03,0,0,1,10,10,10.031,10.031,0,0,1-10,10A10.029,10.029,0,0,1-4483-10728Zm1,0a8.961,8.961,0,0,0,9,9,8.964,8.964,0,0,0,9-9,8.963,8.963,0,0,0-9-9A8.961,8.961,0,0,0-4482-10728Z" transform="translate(4515.001 10770.001)" fill="#b8bcbf"/>
</svg>
