<svg id="_30DS-logo_dashboard" data-name="30DS-logo_dashboard" xmlns="http://www.w3.org/2000/svg" width="68" height="87" viewBox="0 0 68 87">
  <path id="_30DS-logo_dashboard-2" data-name="30DS-logo_dashboard" d="M3.688,36.4a13.6,13.6,0,0,0,3.679,2.284,19.176,19.176,0,0,0,4.2,1.227,24.917,24.917,0,0,0,4.308.382,28.071,28.071,0,0,0,4.39-.352,20.14,20.14,0,0,0,4.328-1.2,13.867,13.867,0,0,0,3.835-2.3,10.778,10.778,0,0,0,2.763-3.661,11.93,11.93,0,0,0,1.033-5.046,7.751,7.751,0,0,0-.508-2.751,9.751,9.751,0,0,0-1.388-2.5A10.343,10.343,0,0,0,28.222,20.4c-.032-.021-.062-.044-.094-.068A8.633,8.633,0,0,0,29.84,18.42a9.524,9.524,0,0,0,1.137-2.393,8.311,8.311,0,0,0,.393-2.539,11.086,11.086,0,0,0-.954-4.562,10.692,10.692,0,0,0-2.492-3.467,13.666,13.666,0,0,0-3.51-2.337,18.263,18.263,0,0,0-4.065-1.315,21.531,21.531,0,0,0-4.272-.42,23.871,23.871,0,0,0-4.207.364,19.524,19.524,0,0,0-4.1,1.2A13.535,13.535,0,0,0,4.16,5.145a10.3,10.3,0,0,0-2.6,3.4,10.719,10.719,0,0,0-.98,4.594L.573,14.621h9.566l.032-1.438a1.729,1.729,0,0,1,.372-1.119,3.489,3.489,0,0,1,1.258-.922,8.748,8.748,0,0,1,2.031-.625,12.178,12.178,0,0,1,2.191-.191A11.079,11.079,0,0,1,19.1,10.7a4.883,4.883,0,0,1,1.692.84,2.852,2.852,0,0,1,.776.96,2.362,2.362,0,0,1,.216.963,1.888,1.888,0,0,1-.351,1.148,3.037,3.037,0,0,1-1.143.857,7.837,7.837,0,0,1-1.978.572,15.994,15.994,0,0,1-2.427.182H9.318v8.337h6.956a12.837,12.837,0,0,1,3.428.382,4.772,4.772,0,0,1,1.718.813,2.234,2.234,0,0,1,.667.9,3.012,3.012,0,0,1,.189,1.107,2.562,2.562,0,0,1-.3,1.268,3.162,3.162,0,0,1-.889,1,5.882,5.882,0,0,1-1.467.787,9.669,9.669,0,0,1-1.825.484,11.783,11.783,0,0,1-1.872.156,11.122,11.122,0,0,1-3.481-.584,6.471,6.471,0,0,1-1.532-.757,3.238,3.238,0,0,1-.948-.939,2.1,2.1,0,0,1-.3-1.11l-.018-1.453H0l.024,1.5a11.6,11.6,0,0,0,1.01,4.762,10.643,10.643,0,0,0,2.651,3.535ZM55.529,48.347,50.28,40.118l-7.352.208.056,2.117,9.126,13.3.289,10.7,7.168-.205-.289-10.686L68,41.744l-.056-2.128-7.4.208-5.019,8.522ZM33.935,22.639a19.131,19.131,0,0,0,1.11,6.077,15.785,15.785,0,0,0,2.722,4.75,15.526,15.526,0,0,0,3.915,3.35,17.137,17.137,0,0,0,4.65,1.926,18.344,18.344,0,0,0,9.923-.282,16.985,16.985,0,0,0,4.538-2.187,15.621,15.621,0,0,0,3.72-3.552,15.779,15.779,0,0,0,2.451-4.891,19.141,19.141,0,0,0,.771-6.121l-.142-5.044a18.9,18.9,0,0,0-1.11-6.068,15.788,15.788,0,0,0-2.719-4.747,15.579,15.579,0,0,0-3.912-3.338A16.976,16.976,0,0,0,55.2.577a18.354,18.354,0,0,0-9.926.264,17.1,17.1,0,0,0-4.532,2.178,15.548,15.548,0,0,0-3.72,3.561,15.779,15.779,0,0,0-2.451,4.891,19.038,19.038,0,0,0-.768,6.13l.142,5.044Zm15.53-10.363,1.184-6.362L57.1,16.08l6.454-.845-7.729,9.242,2.8,5.842L47.4,25.862l-4.721,4.456.791-12-5.722-3.088,11.718-2.959ZM2.214,67.863c.98-.026,1.96-.056,2.944-.079L8.228,67.7c.983-.029,1.966-.05,2.949-.085a14.378,14.378,0,0,0,4.7-.881A11.578,11.578,0,0,0,19.5,64.549a11.7,11.7,0,0,0,2.471-3.124,13.62,13.62,0,0,0,1.355-3.684,15.866,15.866,0,0,0,.316-3.9,15.679,15.679,0,0,0-.626-3.769,13.408,13.408,0,0,0-1.591-3.476,11.4,11.4,0,0,0-6.315-4.756,14.418,14.418,0,0,0-4.65-.587q-1.47.04-2.947.085l-3.071.088c-.983.026-1.963.056-2.944.079l-1.435.044.714,26.36,1.435-.041Zm8.438-19.5a6.668,6.668,0,0,1,2.179.267,4.842,4.842,0,0,1,1.559.81,5.04,5.04,0,0,1,1.1,1.227,6.122,6.122,0,0,1,.709,1.585,8.11,8.11,0,0,1,.183,3.731A6.447,6.447,0,0,1,15.81,57.7,4.716,4.716,0,0,1,13.239,60a6.672,6.672,0,0,1-2.259.417l-3.257.094L7.4,48.455l3.257-.094ZM35.6,81.423h2.746v2.164a1.9,1.9,0,0,1-.655.326,4.738,4.738,0,0,1-1.467.173,2.319,2.319,0,0,1-1.9-.86,3.623,3.623,0,0,1-.726-2.372V77.883a3.644,3.644,0,0,1,.709-2.337,2.169,2.169,0,0,1,1.8-.86,2.273,2.273,0,0,1,1.624.517,1.948,1.948,0,0,1,.534,1.477v.379h3.351L41.7,76.8c0-.018.018-.035.018-.053l.018-.053v-.053a4.444,4.444,0,0,0-1.467-3.573,6.24,6.24,0,0,0-4.234-1.324,5.862,5.862,0,0,0-4.355,1.735,6.1,6.1,0,0,0-1.692,4.433v2.939A6.011,6.011,0,0,0,31.733,85.3a6.144,6.144,0,0,0,4.476,1.717,8.426,8.426,0,0,0,3.558-.669,5.758,5.758,0,0,0,2.126-1.615l.086-.1V78.669H35.621L35.6,81.417Zm10.989-.79h5.27V77.68h-5.27V74.9h6.236V71.944H42.981V86.819h9.864V83.88H46.592ZM64.7,85.2a5.172,5.172,0,0,1-.156-1.151v-1.03a4.268,4.268,0,0,0-.605-2.337,3.167,3.167,0,0,0-1.21-1.083,4.08,4.08,0,0,0,1.089-1,3.512,3.512,0,0,0,.655-2.1,4.1,4.1,0,0,0-1.52-3.367,6.369,6.369,0,0,0-4.042-1.186H53.622V86.834h3.611V81.2h1.884a1.636,1.636,0,0,1,1.83,1.838v1a8.224,8.224,0,0,0,.121,1.444,1.957,1.957,0,0,0,.641,1.271l.1.085h3.454v-.772l-.156-.12a1.377,1.377,0,0,1-.413-.74ZM60.38,77.836a2.4,2.4,0,0,1-1.538.411H57.2V74.915h1.677a2.03,2.03,0,0,1,1.467.464,1.713,1.713,0,0,1,.466,1.271,1.389,1.389,0,0,1-.431,1.186Zm-49.518,1.77a10.5,10.5,0,0,0-3.714-1.8,7.805,7.805,0,0,1-2.037-.91,1.055,1.055,0,0,1-.466-.875,1.211,1.211,0,0,1,.449-1,2.043,2.043,0,0,1,1.364-.411A2.337,2.337,0,0,1,8,75.076a1.668,1.668,0,0,1,.52,1.339v.379h3.422l.086-.258c0-.018.018-.035.018-.053l.018-.053v-.053a4.058,4.058,0,0,0-1.538-3.4A6.171,6.171,0,0,0,6.478,71.7a6.039,6.039,0,0,0-3.888,1.186A3.789,3.789,0,0,0,1,76.033a3.667,3.667,0,0,0,1.417,3.024,12.11,12.11,0,0,0,3.853,1.8,5.6,5.6,0,0,1,1.866.86,1.281,1.281,0,0,1,.431,1.013,1.154,1.154,0,0,1-.449.963,2.422,2.422,0,0,1-1.5.4,2.792,2.792,0,0,1-1.763-.517,1.9,1.9,0,0,1-.605-1.547v-.4H.824l-.086.258c0,.018-.018.035-.018.053L.7,82v.068a4.127,4.127,0,0,0,1.763,3.711,7.081,7.081,0,0,0,4.145,1.2A6.717,6.717,0,0,0,10.6,85.862,3.74,3.74,0,0,0,12.176,82.7a3.7,3.7,0,0,0-1.314-3.091Zm27.33-39.139-6.548.188-10.8,26.688,7.8-.226,1.833-4.462,10.068-.288,2.043,4.357,7.836-.22L38.2,40.47ZM33.277,55.518l1.913-4.876L37.369,55.4l-4.089.12ZM12.757,86.84h3.519V71.947H12.757Zm13.014-6.288c-1.692-2.8-3.369-5.6-5.063-8.4l-.121-.188H17.151V86.84h3.611V78.232c1.692,2.8,3.369,5.616,5.063,8.417l.1.188h3.454V71.961H25.772v8.59Z" transform="translate(0 -0.019)" fill="#39f"/>
</svg>
