<svg data-name="30DS-logo-full" xmlns="http://www.w3.org/2000/svg" width="141" height="44"><path data-name="30DS-logo-full" d="m13.56 30.667-4.628 11.5 3.341-.1.786-1.923 4.314-.124.875 1.877 3.357-.1-5.236-11.213Zm.7 6.4.82-2.1.934 2.049Zm14.856-6.849-3.17.09-2.151 3.672-2.249-3.545-3.15.09.025.912 3.911 5.728.125 4.609 3.072-.088-.124-4.6 3.737-5.947ZM1.58 28.832a5.823 5.823 0 0 0 1.576.984 8.167 8.167 0 0 0 1.8.529 10.613 10.613 0 0 0 1.846.165 11.788 11.788 0 0 0 1.881-.152 8.652 8.652 0 0 0 1.855-.516 5.925 5.925 0 0 0 1.643-.992 4.631 4.631 0 0 0 1.184-1.577 5.152 5.152 0 0 0 .442-2.175 3.377 3.377 0 0 0-.218-1.186 4.185 4.185 0 0 0-.6-1.077 4.457 4.457 0 0 0-.9-.895l-.04-.029a3.734 3.734 0 0 0 .734-.826 4.109 4.109 0 0 0 .487-1.031 3.623 3.623 0 0 0 .169-1.094 4.791 4.791 0 0 0-.408-1.966 4.614 4.614 0 0 0-1.068-1.494 5.813 5.813 0 0 0-1.5-1.006 7.807 7.807 0 0 0-1.742-.567 9.19 9.19 0 0 0-1.831-.181 10.259 10.259 0 0 0-1.8.157 8.392 8.392 0 0 0-1.756.517 5.789 5.789 0 0 0-1.547.945A4.439 4.439 0 0 0 .673 16.83a4.653 4.653 0 0 0-.42 1.98v.638h4.1l.013-.62a.746.746 0 0 1 .16-.482 1.487 1.487 0 0 1 .539-.4 3.693 3.693 0 0 1 .87-.269 5.188 5.188 0 0 1 .939-.082 4.668 4.668 0 0 1 1.317.162 2.1 2.1 0 0 1 .724.362 1.226 1.226 0 0 1 .332.414 1.014 1.014 0 0 1 .093.415.814.814 0 0 1-.151.495 1.283 1.283 0 0 1-.49.369 3.277 3.277 0 0 1-.848.246 6.818 6.818 0 0 1-1.041.079H4.001v3.592h2.968a5.445 5.445 0 0 1 1.469.165 2.061 2.061 0 0 1 .736.35.961.961 0 0 1 .286.389 1.337 1.337 0 0 1 .082.477 1.118 1.118 0 0 1-.129.546 1.366 1.366 0 0 1-.381.429 2.512 2.512 0 0 1-.628.339 4.143 4.143 0 0 1-.782.209 5.024 5.024 0 0 1-.8.067 4.742 4.742 0 0 1-1.492-.252 2.8 2.8 0 0 1-.657-.326 1.38 1.38 0 0 1-.406-.4.894.894 0 0 1-.127-.478l-.007-.627H-.001l.01.645a5 5 0 0 0 .433 2.051 4.573 4.573 0 0 0 1.138 1.522Zm13.437-3.311a6.825 6.825 0 0 0 1.166 2.046 6.678 6.678 0 0 0 1.677 1.443 7.3 7.3 0 0 0 1.993.83 7.822 7.822 0 0 0 4.251-.122 7.244 7.244 0 0 0 1.945-.942 6.694 6.694 0 0 0 1.593-1.53 6.843 6.843 0 0 0 1.05-2.108 8.238 8.238 0 0 0 .33-2.637l-.061-2.173a8.184 8.184 0 0 0-.476-2.615 6.833 6.833 0 0 0-1.165-2.046 6.7 6.7 0 0 0-1.676-1.439 7.216 7.216 0 0 0-1.993-.833 7.821 7.821 0 0 0-4.253.114 7.32 7.32 0 0 0-1.942.939 6.673 6.673 0 0 0-1.595 1.534 6.827 6.827 0 0 0-1.05 2.108 8.248 8.248 0 0 0-.329 2.641l.06 2.173a8.267 8.267 0 0 0 .475 2.621Zm6.179-7.084.507-2.74 2.764 4.38 2.766-.364-3.313 3.981 1.2 2.517-4.812-1.92-2.023 1.92.339-5.168-2.452-1.33Zm-11.2 19.59a6.848 6.848 0 0 0-.133-3.306 5.8 5.8 0 0 0-.682-1.5 4.975 4.975 0 0 0-1.128-1.236 4.919 4.919 0 0 0-1.577-.813 6.131 6.131 0 0 0-1.993-.253q-.63.016-1.262.036l-1.316.039-1.261.035-.616.018.306 11.358.615-.018 1.261-.035 1.316-.038c.421-.013.843-.022 1.264-.036a6.152 6.152 0 0 0 2.014-.379 4.96 4.96 0 0 0 1.553-.939 5.027 5.027 0 0 0 1.059-1.346 5.862 5.862 0 0 0 .581-1.583Zm-2.975-.753a2.742 2.742 0 0 1-.247.736 2.026 2.026 0 0 1-1.1.994 2.873 2.873 0 0 1-.968.18l-1.395.04-.14-5.2 1.4-.04a2.827 2.827 0 0 1 .933.115 2.069 2.069 0 0 1 .668.35 2.161 2.161 0 0 1 .474.529 2.7 2.7 0 0 1 .3.683 3.5 3.5 0 0 1 .131.78 3.571 3.571 0 0 1-.055.837Zm42.088-9.069a18.028 18.028 0 0 0-6.368-3.1 12.481 12.481 0 0 1-3.5-1.583 1.781 1.781 0 0 1-.806-1.5 2.174 2.174 0 0 1 .764-1.725 3.522 3.522 0 0 1 2.355-.708 3.935 3.935 0 0 1 2.655.814 2.93 2.93 0 0 1 .887 2.3v.663h5.873l.155-.445c.012-.031.023-.064.033-.1l.035-.1v-.1a7.07 7.07 0 0 0-2.627-5.885 12.031 12.031 0 0 0-13.617-.157 6.568 6.568 0 0 0-2.721 5.419 6.333 6.333 0 0 0 2.434 5.226 20.576 20.576 0 0 0 6.622 3.108 9.7 9.7 0 0 1 3.2 1.471 2.2 2.2 0 0 1 .749 1.762 2 2 0 0 1-.778 1.674 4.233 4.233 0 0 1-2.575.672 4.786 4.786 0 0 1-3.03-.877 3.235 3.235 0 0 1-1.026-2.657v-.663h-5.869l-.155.445c-.011.031-.023.064-.034.1l-.036.1v.1a7.142 7.142 0 0 0 3.021 6.4 12.24 12.24 0 0 0 7.13 2.077 11.349 11.349 0 0 0 6.855-1.941 6.474 6.474 0 0 0 2.714-5.467 6.744 6.744 0 0 0-2.339-5.319Zm7.526-8.745a1.077 1.077 0 0 1-.3-.985c.458-.6-.117-1.776-.839-1.28a.848.848 0 0 0 .117 1.343.488.488 0 0 1-.194.813 1.594 1.594 0 0 1-1.614-.9 2.041 2.041 0 0 1 .039-2.009c-.287-.031-.7-.106-.953.312a2.346 2.346 0 0 0 .218 2.268 1 1 0 0 1-.617-.044c.056.179.1 23.8 0 23.917.672.914 2.969 1.974 4.193-.088-.489-4.37-.047-23.341-.049-23.342Zm34.464 11.878h4.691v3.751a4.107 4.107 0 0 1-1.121.57 8.266 8.266 0 0 1-2.535.311 3.929 3.929 0 0 1-3.25-1.49 6.347 6.347 0 0 1-1.258-4.089v-5.118a6.372 6.372 0 0 1 1.229-4.048 3.725 3.725 0 0 1 3.1-1.48 3.974 3.974 0 0 1 2.8.894 3.377 3.377 0 0 1 .916 2.543v.663h5.744l.152-.453.033-.1.033-.094v-.1a7.645 7.645 0 0 0-2.519-6.157 10.728 10.728 0 0 0-7.283-2.282 10.052 10.052 0 0 0-7.484 2.986 10.534 10.534 0 0 0-2.918 7.666v5.083a10.375 10.375 0 0 0 3.005 7.684 10.544 10.544 0 0 0 7.7 2.972 14.172 14.172 0 0 0 6.112-1.166 10.01 10.01 0 0 0 3.636-2.78l.136-.177V26.635H91.101Zm18.359-1.354h9.036v-5.088h-9.036v-4.8h10.711v-5.1H103.25v25.69h16.954v-5.062H109.46Zm31.289 9.172a2.337 2.337 0 0 1-.712-1.285 8.19 8.19 0 0 1-.26-1.976v-1.787a7.421 7.421 0 0 0-1.046-4.04 5.3 5.3 0 0 0-2.088-1.855 6.906 6.906 0 0 0 1.865-1.72 6 6 0 0 0 1.121-3.63 7.1 7.1 0 0 0-2.6-5.809 10.869 10.869 0 0 0-6.935-2.05h-9.095v25.69h6.209v-9.737h3.222a3.178 3.178 0 0 1 2.345.813 3.265 3.265 0 0 1 .807 2.373v1.718a16.289 16.289 0 0 0 .2 2.5 3.385 3.385 0 0 0 1.1 2.188l.183.148h5.935V39.36Zm-8.107-14a4.122 4.122 0 0 1-2.627.712h-2.804V20.1h2.885a3.538 3.538 0 0 1 2.507.793 2.921 2.921 0 0 1 .811 2.187 2.628 2.628 0 0 1-.77 2.078Zm-58.443 4.69-8.69-14.518-.193-.323h-.376c-1.628 0-2.691.151-4.319.151l-1.227 2.734v22.8h6.209V25.832l8.691 14.541.192.324h5.929v-25.69h-6.214ZM52.611 11.238c-.32-.017-.471-.013-.79-.029l-.1 1.04a1.3 1.3 0 0 0 .454 1.24c.825.827.842 1.27 2.042 1.05a11.464 11.464 0 0 1-1.527-1.629 1.193 1.193 0 0 1-.15-.786l.074-.884Zm-1.326 2.339a1.5 1.5 0 0 1-.374-1.284c.033-.376.08-.791.11-1.167-.326 0-.438-.057-.763-.056-.013.447-.058.935-.1 1.415a2.086 2.086 0 0 0 .475 1.473c.7.61.579.817 1.648.642-.277-.357-.697-.678-.993-1.021Zm1.37-3.741c.091-.348.087-.411.177-.76q1.465.084 2.926.165l3.679 2.553.181-1.1-3.4-2.247a3.487 3.487 0 0 0-.13-.08l-.154-.007-2.886-.122.173-.664 3.011.169c1.155.818 2.431 1.677 3.585 2.494l.18-1.1c-1.061-.715-2.243-1.472-3.3-2.187l-.13-.081-.155-.006-2.97-.125.2-.786 2.626.085c1.243.778 2.606 1.6 3.848 2.374q.125-.469.246-.939c-1.178-.7-2.476-1.438-3.654-2.136l-.133-.082h-.163l-2.561-.1.17-.656 2.585.108c1.245.706 2.69 1.533 3.936 2.238q.1-.438.209-.876c-1.185-.659-2.572-1.439-3.757-2.1l-.117-.065-.136-.008-2.515-.08.181-.7 2.521.148c1.228.768 2.777 1.739 4 2.508.05-.3.1-.6.147-.9l-3.735-2.3c-.042-.025-.085-.049-.127-.075l-.153-.005-2.468-.1.13-.5 2.549.033c1.283.8 2.761 1.695 4.009 2.476.281-.961.629-1.225-.306-2.066A12.786 12.786 0 0 0 57.699.169a11.248 11.248 0 0 0-4.805.158c-.788.248-.655.611-.894 1.428l2.12.028-.125.481-2.117-.087c-.066.227-.132.454-.2.681l2.129.125-.185.71-2.168-.07-.221.754 2.186.092-.172.658-2.208-.082-.238.811 2.237.072c-.067.26-.135.521-.2.781l-2.255-.095-.232.795 2.272.128c-.059.224-.118.447-.175.671l-2.3-.1-.233.8 2.319.13c-.092.352-.09.42-.181.772-.789-.028-1.578-.055-2.367-.075-.066.224-.226.732-.291.957a6.167 6.167 0 0 0 .111 1.666c.07.238.1.451.371.36.019-.057.07-1.787.089-2.02.774.02 4.025.341 4.916.4.032.666-.144 1.069.025 1.447a1.874 1.874 0 0 0 .508.7 13.65 13.65 0 0 0 1.38 1.089c.174.121.281.588-.177.6a28.388 28.388 0 0 1-2.912-.076c-.593-.04-.855.047-1.089.373a2.631 2.631 0 0 0-.369.822 2.749 2.749 0 0 0 .016 2.212c.257.328.39.339.395.235a4.029 4.029 0 0 0-.143-.449 2.86 2.86 0 0 1 .469-1.917 4.174 4.174 0 0 1 1.209.082 2.156 2.156 0 0 0-.162 2.081 1.914 1.914 0 0 0 .587.638c.56.385 1.046.1.594-.375a1.035 1.035 0 1 1 1.523-.9c.549-.9.7-1.63 1.1-2.411a2.617 2.617 0 0 0 1.2-.993l.308-1.873c-1.315-.69-2.466-1.709-3.79-2.384-.966-.015-1.931-.127-2.896-.162Zm1.636 1.564c-.333-.029-.454-.017-.786-.046-.05.38-.135.7-.153 1a1.268 1.268 0 0 0 .471 1.106c1.094 1.006 1.384 1.315 2.48 1.14-.478-.4-1.142-.89-1.625-1.286a1.131 1.131 0 0 1-.52-1.175c.031-.208.09-.448.136-.738Z" fill="#fff"/></svg>
