<svg xmlns="http://www.w3.org/2000/svg" width="141" height="44" viewBox="0 0 141 44"><g><g><path fill="#39f" d="M54.16 12.144c-.057.422.003.749.52 1.175.484.396 1.147.883 1.626 1.286-1.097.175-1.387-.134-2.48-1.14-.409-.376-.494-.723-.471-1.106.018-.3.103-.624.153-1.004.332.03.453.017.786.046-.046.29-.105.53-.133.743zm-1.502-2.307c.965.035 1.93.145 2.895.169 1.324.674 2.475 1.693 3.79 2.383l-.307 1.874c-.292.455-.688.765-1.2.992-.401.781-.548 1.51-1.097 2.41-.203-.797-.894-1.143-1.37-.992-.56.228-.815 1.193-.153 1.892.452.477-.034.76-.594.376a1.914 1.914 0 0 1-.587-.639c-.285-.596-.28-1.354.162-2.08-.564-.087-.876-.127-1.208-.082-.36.54-.575 1.302-.47 1.917.022.127.148.345.143.449-.004.104-.138.093-.394-.235-.355-.454-.27-1.41-.016-2.212.113-.36.2-.589.37-.821.233-.326.495-.413 1.088-.373.985.069 1.991.109 2.912.076.458-.017.351-.484.177-.604-.544-.38-1.03-.767-1.38-1.089a1.874 1.874 0 0 1-.507-.698c-.169-.378.007-.78-.025-1.447-.891-.06-4.142-.38-4.916-.4-.02.233-.07 1.963-.09 2.02-.266.092-.3-.121-.37-.36-.118-.405-.135-1.124-.11-1.665.064-.225.224-.733.29-.957.79.02 1.58.047 2.368.075.092-.352.09-.42.181-.772l-2.319-.13.233-.796c.767.033 1.534.066 2.302.097l.175-.67c-.757-.044-1.515-.087-2.272-.129l.233-.795 2.255.095.203-.78c-.746-.024-1.491-.05-2.238-.073l.239-.811 2.208.082.172-.658c-.728-.03-1.457-.06-2.186-.092l.22-.753 2.168.07.185-.71-2.13-.125c.068-.227.133-.454.2-.681.706.028 1.41.058 2.117.087l.126-.481-2.12-.028c.24-.817.107-1.18.894-1.428 1.43-.45 3.03-.388 4.805-.157.92.317 2.52 1.385 3.275 2.065.936.84.588 1.105.306 2.065-1.248-.78-2.726-1.674-4.009-2.476-.85-.01-1.7-.022-2.549-.033a86.3 86.3 0 0 0-.13.498 3009.43 3009.43 0 0 0 2.621.106c.042.026.086.05.127.075l3.735 2.304-.147.899c-1.227-.77-2.776-1.74-4.004-2.508-.84-.05-1.681-.1-2.521-.148l-.181.695 2.515.08.135.01c.039.02.079.042.117.064 1.186.659 2.573 1.438 3.758 2.097l-.209.876c-1.245-.706-2.69-1.532-3.936-2.239-.861-.035-1.722-.07-2.585-.108l-.17.656 2.56.096.163.005.133.082c1.178.699 2.477 1.438 3.654 2.137-.08.313-.163.626-.246.938-1.242-.777-2.605-1.596-3.848-2.374l-2.625-.084-.205.785 2.97.126.155.006.13.08c1.061.716 2.244 1.473 3.304 2.188l-.18 1.099c-1.154-.817-2.43-1.676-3.585-2.494l-3.011-.169-.173.664c.962.04 1.924.08 2.885.122.05.002.103.003.154.006l.13.08 3.398 2.248-.18 1.098-3.68-2.553-2.926-.165c-.09.349-.086.412-.177.76zm-.378 4.764c-1.07.175-.952-.032-1.648-.642-.317-.278-.517-1.018-.475-1.473.046-.48.09-.968.103-1.415.325 0 .437.057.763.056-.03.377-.077.792-.11 1.168-.044.478-.006.84.375 1.283.296.344.716.664.992 1.023zm.262-2.476c-.015.183-.04.492.15.787.428.663 1.222 1.306 1.527 1.629-1.2.22-1.217-.224-2.042-1.05-.291-.274-.537-.613-.454-1.24l.1-1.04c.32.016.471.012.79.029-.024.295-.048.59-.07.885zM74.2 15.007h6.215v25.69h-5.929l-.192-.324c-2.897-4.846-5.794-9.693-8.69-14.541v14.865h-6.21V17.892l1.227-2.734c1.629 0 2.692-.151 4.32-.151h.376l.193.323 8.69 14.518zm58.443 10.151c.604-.523.77-1.307.77-2.075 0-.83-.208-1.597-.81-2.187-.652-.639-1.632-.793-2.508-.793h-2.885v5.767h2.806c.865 0 1.944-.122 2.627-.712zM141 39.36v1.337h-5.935l-.183-.149c-.668-.538-.973-1.362-1.101-2.188a16.288 16.288 0 0 1-.198-2.496v-1.718c0-.864-.181-1.74-.807-2.373-.623-.63-1.486-.813-2.345-.813h-3.222v9.737h-6.21v-25.69h9.095c2.445 0 4.988.476 6.935 2.05 1.822 1.473 2.599 3.49 2.599 5.81 0 1.32-.337 2.56-1.121 3.629a6.906 6.906 0 0 1-1.865 1.72c.836.433 1.565 1.032 2.088 1.855.772 1.211 1.046 2.623 1.046 4.04V35.9c0 .666.1 1.33.26 1.976.118.469.323.976.713 1.285zm-31.54-3.736h10.745v5.073H103.25v-25.69h16.92v5.096h-10.71V24.9h9.036v5.088h-9.036zM91.1 26.635h10.918V36.93l-.136.177c-.936 1.224-2.264 2.114-3.636 2.78-1.859.903-4.066 1.163-6.11 1.163-2.944 0-5.589-.89-7.7-2.972-2.113-2.09-3.005-4.736-3.005-7.684V25.31c0-2.922.857-5.56 2.918-7.666 2.035-2.078 4.592-2.986 7.484-2.986 2.585 0 5.298.509 7.283 2.282 1.817 1.619 2.572 3.746 2.52 6.157l-.003.1-.033.095c-.01.035-.022.069-.033.102l-.152.454H95.67v-.663c0-.947-.215-1.87-.916-2.543-.74-.71-1.813-.895-2.802-.895-1.281 0-2.301.475-3.096 1.48-.918 1.157-1.229 2.597-1.229 4.048v5.118c0 1.476.317 2.92 1.258 4.09.84 1.038 1.923 1.49 3.25 1.49.796 0 1.776-.05 2.535-.312.382-.133.789-.316 1.12-.57v-3.75h-4.69zm-34.464-7.17c.002 0-.44 18.972.052 23.347-1.223 2.062-3.52 1.002-4.192.088.102-.12.055-23.738 0-23.917.15.053.41.118.617.044-.165-.057-.725-1.42-.218-2.268.252-.418.666-.343.953-.312-.372.472-.366 1.344-.039 2.01.266.543 1.037 1.08 1.614.899.304-.096.5-.562.195-.814-.392-.275-.613-1.002-.117-1.343.721-.495 1.296.683.839 1.28-.102.59.154.75.296.985zm-7.526 8.744c1.607 1.396 2.336 3.218 2.336 5.327 0 2.262-.891 4.117-2.713 5.467-1.979 1.465-4.438 1.941-6.856 1.941-2.565 0-5.008-.604-7.13-2.077-2.189-1.521-3.079-3.778-3.02-6.402l.002-.104.036-.1c.01-.032.023-.065.034-.096l.154-.445h5.869v.663c0 .994.215 2.009 1.026 2.657.849.68 1.969.877 3.03.877.852 0 1.883-.123 2.575-.672.543-.432.777-.983.777-1.674 0-.705-.215-1.297-.749-1.762-.776-.677-2.226-1.175-3.196-1.47-2.238-.68-4.77-1.645-6.622-3.108-1.67-1.32-2.434-3.11-2.434-5.226 0-2.242.949-4.054 2.72-5.419 1.933-1.488 4.273-2.034 6.677-2.034 2.508 0 4.974.562 6.94 2.191 1.828 1.513 2.69 3.519 2.628 5.885l-.002.103-.035.098c-.011.033-.022.066-.034.097l-.155.445h-5.869v-.663c0-.878-.214-1.704-.886-2.304-.72-.64-1.722-.814-2.655-.814-.821 0-1.72.146-2.355.708-.524.462-.764 1.027-.764 1.725 0 .65.292 1.117.806 1.501.952.706 2.377 1.236 3.497 1.584 2.165.67 4.635 1.598 6.368 3.101zM7.022 37.278a3.572 3.572 0 0 0-.078-1.608c-.07-.242-.17-.471-.304-.683a2.069 2.069 0 0 0-1.142-.88 2.827 2.827 0 0 0-.933-.115l-1.395.04.14 5.196 1.394-.04c.327-.01.661-.059.968-.18.242-.097.472-.227.663-.408a2.1 2.1 0 0 0 .44-.586c.116-.233.2-.48.247-.736zm2.975.752a5.862 5.862 0 0 1-.581 1.588c-.277.511-.632.961-1.059 1.346a4.96 4.96 0 0 1-1.553.94c-.644.247-1.33.357-2.014.379-.421.015-.843.023-1.264.036l-1.316.039c-.42.01-.84.024-1.261.035l-.615.018-.306-11.358.616-.018L1.905 31l1.316-.039 1.262-.036a6.13 6.13 0 0 1 1.993.252 4.92 4.92 0 0 1 1.577.814c.442.346.823.758 1.129 1.236.297.463.524.965.682 1.498a6.84 6.84 0 0 1 .133 3.306zm6.178-18.314l2.452 1.33-.34 5.169 2.023-1.92 4.812 1.92-1.2-2.517 3.312-3.982-2.766.365-2.764-4.38-.508 2.74zm-1.633 3.19l-.06-2.172c-.025-.892.068-1.786.33-2.641a6.828 6.828 0 0 1 1.05-2.108 6.674 6.674 0 0 1 1.594-1.534 7.32 7.32 0 0 1 1.943-.938 7.866 7.866 0 0 1 2.119-.352 7.88 7.88 0 0 1 2.134.238c.704.177 1.37.456 1.993.833a6.705 6.705 0 0 1 1.676 1.439c.51.609.891 1.301 1.165 2.045.31.838.451 1.726.476 2.616l.06 2.172c.024.891-.068 1.784-.33 2.638a6.843 6.843 0 0 1-1.05 2.107 6.694 6.694 0 0 1-1.593 1.53c-.6.41-1.25.727-1.945.943a7.867 7.867 0 0 1-2.117.355 7.872 7.872 0 0 1-2.134-.233 7.296 7.296 0 0 1-1.993-.83 6.678 6.678 0 0 1-1.677-1.443 6.825 6.825 0 0 1-1.166-2.047c-.307-.84-.45-1.726-.475-2.618zM1.58 28.836a4.573 4.573 0 0 1-1.137-1.523c-.3-.642-.422-1.346-.433-2.052L0 24.617h4.134l.007.626a.894.894 0 0 0 .128.478c.105.165.244.298.406.405a2.8 2.8 0 0 0 .656.326 4.657 4.657 0 0 0 1.492.252c.269 0 .537-.024.802-.067.267-.043.529-.115.783-.21.224-.082.436-.195.628-.338.156-.115.285-.26.38-.43.095-.166.128-.355.13-.545a1.337 1.337 0 0 0-.082-.477.96.96 0 0 0-.285-.39c-.193-.168-.496-.278-.737-.35-.458-.133-.994-.164-1.469-.164h-2.98v-3.592H6.8c.35 0 .696-.026 1.04-.079.293-.045.58-.124.849-.246.19-.085.36-.204.49-.369a.814.814 0 0 0 .15-.494 1.014 1.014 0 0 0-.092-.415c-.067-.16-.203-.302-.332-.414-.2-.17-.477-.286-.724-.362-.413-.127-.89-.16-1.318-.162-.314 0-.629.027-.938.083-.3.054-.594.142-.87.269a1.487 1.487 0 0 0-.539.397.746.746 0 0 0-.16.482l-.013.62h-4.1l.003-.639c.005-.683.126-1.36.42-1.98a4.439 4.439 0 0 1 1.114-1.464c.463-.397.985-.711 1.547-.945a8.392 8.392 0 0 1 1.757-.518 10.259 10.259 0 0 1 1.802-.156 9.19 9.19 0 0 1 1.831.18c.6.124 1.186.309 1.742.568a5.813 5.813 0 0 1 1.505 1.006c.457.424.81.927 1.068 1.495.28.62.405 1.286.408 1.966.002.372-.059.74-.168 1.094a4.108 4.108 0 0 1-.488 1.03c-.203.313-.45.588-.734.827l.04.029c.343.254.645.554.902.895.25.328.453.69.596 1.077.14.38.22.78.217 1.186 0 .747-.125 1.493-.442 2.175a4.63 4.63 0 0 1-1.184 1.577c-.491.42-1.044.75-1.643.991a8.652 8.652 0 0 1-1.855.516c-.622.1-1.25.152-1.88.152-.62 0-1.237-.057-1.847-.165a8.167 8.167 0 0 1-1.799-.529 5.823 5.823 0 0 1-1.576-.984zm27.56 2.303l-3.736 5.947.124 4.603-3.072.088-.125-4.61-3.91-5.728-.025-.912 3.15-.09 2.249 3.546 2.151-3.672 3.17-.09zm-13.127 5.88l-.934-2.049-.82 2.1zm.353-6.433l5.239 11.217-3.357.095-.875-1.877-4.314.125-.785 1.923-3.342.097 4.628-11.5z"/></g></g></svg>