<svg id="Middle-Deal" xmlns="http://www.w3.org/2000/svg" width="84" height="84" viewBox="0 0 84 84">
  <g id="XMLID_244_" transform="translate(-38)">
    <g id="XMLID_150_">
      <path id="Path_8" data-name="Path 8" d="M80,1A13,13,0,1,1,67,14,12.974,12.974,0,0,1,80,1m0-1A14,14,0,1,0,94,14,14.041,14.041,0,0,0,80,0Z" fill="#b8bcbf"/>
    </g>
    <g id="XMLID_151_">
      <path id="Path_9" data-name="Path 9" d="M66,4.7h0a13.266,13.266,0,0,1,11.3,6.5,12.935,12.935,0,0,1-4.8,17.7A13.411,13.411,0,0,1,66,30.6a13.266,13.266,0,0,1-11.3-6.5A12.935,12.935,0,0,1,59.5,6.4,14.617,14.617,0,0,1,66,4.7m0-1a13.66,13.66,0,0,0-7,1.9,13.994,13.994,0,0,0,7,26.1,13.66,13.66,0,0,0,7-1.9,13.938,13.938,0,0,0,5.1-19.1A14.183,14.183,0,0,0,66,3.7Z" fill="#b8bcbf"/>
    </g>
    <g id="XMLID_152_">
      <path id="Path_10" data-name="Path 10" d="M55.8,15h0a13.411,13.411,0,0,1,6.5,1.7,12.955,12.955,0,0,1-6.5,24.2,13.411,13.411,0,0,1-6.5-1.7,12.8,12.8,0,0,1-6.1-7.9A12.9,12.9,0,0,1,55.8,15m0-1a13.994,13.994,0,0,0-7,26.1,13.66,13.66,0,0,0,7,1.9,13.994,13.994,0,0,0,7-26.1,14.2,14.2,0,0,0-7-1.9Z" fill="#b8bcbf"/>
    </g>
    <g id="XMLID_153_">
      <path id="Path_11" data-name="Path 11" d="M52,29A13,13,0,1,1,39,42,12.974,12.974,0,0,1,52,29m0-1A14,14,0,1,0,66,42,14.041,14.041,0,0,0,52,28Z" fill="#b8bcbf"/>
    </g>
    <g id="XMLID_154_">
      <path id="Path_12" data-name="Path 12" d="M55.7,43h0A13.266,13.266,0,0,1,67,49.5a13.129,13.129,0,0,1,1.3,9.9,12.465,12.465,0,0,1-6.1,7.9A13.411,13.411,0,0,1,55.7,69a13.266,13.266,0,0,1-11.3-6.5,12.935,12.935,0,0,1,4.8-17.7A12.758,12.758,0,0,1,55.7,43m0-1a13.66,13.66,0,0,0-7,1.9,13.994,13.994,0,0,0,7,26.1,13.66,13.66,0,0,0,7-1.9A13.938,13.938,0,0,0,67.8,49a13.734,13.734,0,0,0-12.1-7Z" fill="#b8bcbf"/>
    </g>
    <g id="XMLID_155_">
      <path id="Path_13" data-name="Path 13" d="M66,53.2h0a13.411,13.411,0,0,1,6.5,1.7,12.8,12.8,0,0,1,6.1,7.9A13.015,13.015,0,0,1,66,79.2a13.411,13.411,0,0,1-6.5-1.7A13.028,13.028,0,0,1,66,53.2m0-1a14.049,14.049,0,0,0-7,26.2,13.66,13.66,0,0,0,7,1.9,14.049,14.049,0,0,0,7-26.2,14.712,14.712,0,0,0-7-1.9Z" fill="#b8bcbf"/>
    </g>
    <g id="XMLID_156_">
      <path id="Path_14" data-name="Path 14" d="M80,57A13,13,0,1,1,67,70,12.974,12.974,0,0,1,80,57m0-1A14,14,0,1,0,94,70,14.041,14.041,0,0,0,80,56Z" fill="#b8bcbf"/>
    </g>
    <g id="XMLID_157_">
      <path id="Path_15" data-name="Path 15" d="M94,53.2h0a13.266,13.266,0,0,1,11.3,6.5,12.935,12.935,0,0,1-4.8,17.7A13.411,13.411,0,0,1,94,79.1a13.266,13.266,0,0,1-11.3-6.5,12.935,12.935,0,0,1,4.8-17.7A14.617,14.617,0,0,1,94,53.2m0-1a13.66,13.66,0,0,0-7,1.9,13.994,13.994,0,0,0,7,26.1,13.66,13.66,0,0,0,7-1.9,13.938,13.938,0,0,0,5.1-19.1,14.183,14.183,0,0,0-12.1-7Z" fill="#b8bcbf"/>
    </g>
    <g id="XMLID_158_">
      <path id="Path_16" data-name="Path 16" d="M104.3,43h0a13.411,13.411,0,0,1,6.5,1.7,12.955,12.955,0,0,1-6.5,24.2,13.411,13.411,0,0,1-6.5-1.7A12.955,12.955,0,0,1,104.3,43m0-1a13.994,13.994,0,0,0-7,26.1,13.66,13.66,0,0,0,7,1.9,13.994,13.994,0,0,0,7-26.1,14.2,14.2,0,0,0-7-1.9Z" fill="#b8bcbf"/>
    </g>
    <g id="XMLID_159_">
      <path id="Path_17" data-name="Path 17" d="M108,29A13,13,0,1,1,95,42a12.974,12.974,0,0,1,13-13m0-1a14,14,0,1,0,14,14,14.041,14.041,0,0,0-14-14Z" fill="#b8bcbf"/>
    </g>
    <g id="XMLID_160_">
      <path id="Path_18" data-name="Path 18" d="M104.2,15h0a13.266,13.266,0,0,1,11.3,6.5,12.935,12.935,0,0,1-4.8,17.7,13.411,13.411,0,0,1-6.5,1.7,13.266,13.266,0,0,1-11.3-6.5,12.935,12.935,0,0,1,4.8-17.7,13.7,13.7,0,0,1,6.5-1.7m0-1a13.66,13.66,0,0,0-7,1.9,13.994,13.994,0,0,0,7,26.1,13.66,13.66,0,0,0,7-1.9A13.938,13.938,0,0,0,116.3,21a13.734,13.734,0,0,0-12.1-7Z" fill="#b8bcbf"/>
    </g>
    <g id="XMLID_161_">
      <path id="Path_19" data-name="Path 19" d="M94,4.7h0a13.411,13.411,0,0,1,6.5,1.7A12.955,12.955,0,0,1,94,30.6a13.411,13.411,0,0,1-6.5-1.7,13.047,13.047,0,0,1-4.8-17.7A13.266,13.266,0,0,1,94,4.7m0-1a14.049,14.049,0,0,0-7,26.2,13.66,13.66,0,0,0,7,1.9,14.049,14.049,0,0,0,7-26.2,14.712,14.712,0,0,0-7-1.9Z" fill="#b8bcbf"/>
    </g>
    <g id="XMLID_147_">
      <path id="Path_20" data-name="Path 20" d="M80,15l13.5,3.6,9.9,9.9L107,42l-3.6,13.5-9.9,9.9L80,69,66.5,65.4l-9.9-9.9L53,42l3.6-13.5,9.9-9.9L80,15m0-1L66,17.8,55.7,28,52,42l3.8,14L66,66.2,80,70l14-3.8L104.2,56,108,42l-3.8-14L94,17.7,80,14Z" fill="#b8bcbf"/>
    </g>
    <g id="XMLID_148_">
      <path id="Path_21" data-name="Path 21" d="M91,1l19,11,11,19V53L110,72,91,83H69L50,72,39,53V31L50,12,69,1H91m.3-1H68.7L49.3,11.3,38,30.7V53.2L49.3,72.7,68.7,84H91.2l19.5-11.3L122,53.3V30.7L110.7,11.2,91.3,0Z" fill="#b8bcbf"/>
    </g>
  </g>
</svg>
