<svg xmlns="http://www.w3.org/2000/svg" width="60" height="60" viewBox="0 0 60 60"><g><g><g><path fill="#d81313" d="M32.141.742c.714-.856 1.927-.999 2.783-.285.214.214.428.428.571.714l.428.856c.428.999 1.641 1.427 2.64.999.143-.071.215-.143.357-.214l.785-.571c.857-.642 2.141-.428 2.783.428.143.214.286.5.357.856l.143 1a2.054 2.054 0 0 0 2.283 1.64c.143 0 .286-.07.357-.07l.928-.357c.999-.357 2.14.142 2.569 1.141.071.286.143.571.143.857l-.072.999c-.071 1.07.714 2.07 1.784 2.14h.357l1-.07c1.07-.072 2.069.713 2.14 1.783 0 .286 0 .571-.143.857l-.357.927c-.356 1 .143 2.141 1.142 2.57.143.07.214.07.357.07l.999.143a2.054 2.054 0 0 1 1.641 2.284c-.071.285-.142.57-.356.856l-.643.857c-.642.856-.428 2.14.428 2.783.072.07.215.142.357.214l.857.428c.999.428 1.427 1.641.999 2.64-.143.286-.286.5-.571.714l-.785.642c-.857.714-1 1.927-.286 2.783.072.071.143.214.286.286l.856.5c.856.713 1 1.926.286 2.782-.215.214-.429.428-.714.571l-.856.428c-1 .428-1.428 1.641-1 2.64.072.143.143.215.215.357l.57.785c.643.857.429 2.141-.428 2.783-.214.143-.5.286-.856.357l-.999.143a2.054 2.054 0 0 0-1.641 2.283c0 .143.071.286.071.357l.357.928c.357.999-.143 2.14-1.142 2.569-.285.071-.57.143-.856.143l-1-.072c-1.07-.071-2.069.714-2.14 1.784v.357l.071 1c.072 1.07-.713 2.069-1.784 2.14-.285 0-.57 0-.856-.143l-.928-.357c-.999-.356-2.14.143-2.569 1.142-.071.143-.071.214-.071.357l-.214.928a2.054 2.054 0 0 1-2.284 1.641c-.285-.071-.57-.143-.856-.357l-.785-.57c-.856-.643-2.14-.429-2.783.427-.072.072-.143.215-.214.357l-.428.857c-.429.999-1.642 1.427-2.64.999-.286-.143-.5-.286-.714-.571l-.643-.785c-.713-.857-1.926-1-2.783-.286-.071.072-.214.143-.285.286l-.5.856c-.713.856-1.926 1-2.783.286-.214-.215-.428-.429-.57-.714l-.429-.856c-.428-1-1.641-1.428-2.64-1-.143.072-.214.143-.357.215l-.785.57c-.856.643-2.14.429-2.783-.428a2.381 2.381 0 0 1-.357-.856l-.142-.999a2.054 2.054 0 0 0-2.284-1.641c-.143 0-.285.071-.357.071l-.856.357c-1 .357-2.141-.143-2.57-1.142-.07-.285-.142-.57-.142-.856l.072-1c.07-1.07-.714-2.069-1.785-2.14h-.356l-1 .071c-1.07.072-2.069-.713-2.14-1.784 0-.285 0-.57.143-.856l.356-.928c.357-.999-.142-2.14-1.141-2.569-.143-.071-.215-.071-.357-.071l-1-.214a2.054 2.054 0 0 1-1.64-2.284c.07-.285.142-.57.356-.856l.571-.785c.642-.856.428-2.14-.428-2.783-.071-.071-.214-.143-.357-.214l-.856-.428c-1-.429-1.427-1.642-1-2.64.143-.286.286-.5.572-.714l.785-.643c.856-.713.999-1.926.285-2.783-.071-.071-.143-.214-.285-.285l-.857-.5c-.856-.713-.999-1.926-.285-2.783.214-.214.428-.428.713-.57l.857-.429c.999-.428 1.427-1.641.999-2.64-.072-.143-.143-.214-.214-.357l-.571-.785c-.642-.856-.428-2.14.428-2.783.214-.143.5-.285.856-.357l1-.142a2.054 2.054 0 0 0 1.64-2.284c0-.143-.07-.285-.07-.357l-.357-.856c-.357-1 .142-2.14 1.141-2.57.286-.07.571-.142.857-.142l.999.072c1.07.07 2.07-.714 2.14-1.784v-.357l-.07-1c-.072-1.07.713-2.069 1.783-2.14.286 0 .571 0 .857.143l.927.356c1 .357 2.141-.142 2.57-1.141.07-.143.07-.214.07-.357l.143-1a2.054 2.054 0 0 1 2.284-1.64c.285.07.57.142.856.356l.856.571c.857.642 2.141.428 2.784-.428.07-.071.142-.214.214-.357l.428-.856c.428-1 1.641-1.427 2.64-1 .286.144.5.286.714.572l.642.785c.714.856 1.927.999 2.783.285.071-.071.214-.143.286-.285z"/></g><g><path fill="#fff" d="M35.638 43.701c.071.072.071.072.071.143v.143c.286.357.714.642 1.142.714.357.07.714.142 1.07.142H39.277c.072 0 .214.072.357.072s.285.07.428.07c.143 0 .214-.142.357-.142s.214.072.357.072c.285.07.57.214.785.356.214 0 .428 0 .57.072.072 0 .215.071.286.071.071 0 .143-.071.214-.071h.357V45.2s.071-.071.071-.143c0 0 0-.071-.071-.214l.071-.713c-.071-.143-.214-.214-.285-.286-.072-.071-.214-.143-.286-.214-.071-.071-.214-.143-.285-.214-.143-.143-.214-.214-.286-.357 0-.071-.07-.071-.07-.071h-.072c-.072-.072-.072-.072-.143-.072l-.143-.142-.856-.214-1.07-.214a2.703 2.703 0 0 0-1.07 0c-.072-.072-.144-.143-.286-.143-.072-.071-.214-.071-.286-.071.072-.286.214-.643.428-.928.215-.286.357-.5.571-.785.143-.143.214-.286.357-.428.143-.143.286-.357.357-.571l.143-.143c0-.071.071-.071.071-.143 0-.071.071-.071.071-.142.072-.072.072-.143.143-.143.071-.143.143-.357.286-.5.07-.142.142-.285.285-.428.071-.071.214-.214.285-.357.072-.214.215-.356.286-.5.071 0 .071 0 .143-.07.07-.214.142-.357.07-.571-.07-.214-.142-.357-.213-.5l-.143-.214a2.137 2.137 0 0 1-.57-.285c-.215-.143-.429-.286-.572-.428h-.142c-.072 0-.143.07-.214.07-.215.5-.5.929-.785 1.357-.286.357-.571.785-.857 1.213-.142.214-.357.428-.5.713-.142.286-.285.5-.499.785l-.143.143c-.07.071-.142.214-.214.286-.07.07-.07.142-.07.285a3.785 3.785 0 0 0-.143.147c.001.016.01.067.07.067l.215.143-.214.214c-.143.143-.357.285-.571.428a1.05 1.05 0 0 1-.03.02.267.267 0 0 1-.042.051c-.07.214-.142.357-.214.571-.071.214-.142.428-.142.643v.642c0 .214.071.357.142.57v.215c0 .071.072.071.072.142zm.285-3.068c.072-.143.143-.285.286-.428a.895.895 0 0 1 .143-.21v-.004c-.072 0-.072-.072-.072-.072-.071 0-.071-.071-.143-.142a.541.541 0 0 0-.285-.143l-.072-.071c-.07 0-.07-.072-.07-.072v-.143h-.5c-.072-.07-.072-.07-.143-.07v-.714c0-.215.071-.429.071-.714v-.571-.57c0-.144.072-.358.072-.572.07-.214.07-.357.07-.57v-.215-.428a.86.86 0 0 0-.356-.357c-.143-.071-.357-.214-.5-.285-.142-.071-.213-.071-.285-.143-.071-.071-.143-.071-.214-.143l-.143-.214-.214.143c-.214.286-.57.5-.856.714-.286.214-.642.285-.928.356l-.214-.07h-.285l-.143-.072-.143.071c-.214.143-.357.286-.5.428-.07.143-.213.286-.356.428l-.357.357c-.143.143-.285.214-.428.357-.071.071-.071.071-.071.143v.143c-.143.142-.214.285-.357.428-.143.142-.214.285-.357.428l-1.07 1.284c-.357.357-.714.857-1.07 1.285l-.072.285-.214.072.142.142v.714l.286.143.214.214c.071.071.143.142.214.285l.143.071h.571l.071-.142c.071-.072.143-.072.214-.072.071-.07.143-.07.214-.07.072-.072.143-.072.214-.144l.072-.142c0-.143.071-.214.142-.357.072-.143.143-.214.214-.357 0-.071.072-.143.143-.214.072-.071.072-.143.143-.214h.071l.072-.072.142-.07v-.215l.072-.071h.142l.072-.143s0-.071.071-.143c.071 0 .071-.071.143-.142-.072.07 0 .214 0 .285-.072.143-.072.214-.072.357 0 .071.072.143.072.214l.071.071v.214l.357.072c.143.071.285.071.428.142.214 0 .428.072.642.072h1.071c.143 0 .357.071.5.142-.072.215-.143.429-.286.571-.143.143-.357.143-.571.143h-.428l.143.357c0 .071.07.071.07.143l.072.071c.072.143.143.214.143.285 0 .072 0 .143-.071.214l-.072.143.286.286.142.142c.072.072.143.072.215.143.214 0 .428.071.642 0l.642-.214c.143-.071.357-.214.5-.357.142-.143.285-.285.428-.5.071-.213.142-.356.142-.57.072-.214.072-.357.072-.571v-.214-.143c.272 0 .544-.065.754-.194.035-.058.048-.125.102-.234zm-5.138-2.569c.286-.214.5-.428.642-.714.215-.214.5-.428.785-.57l.072-.143V38.707c-.286 0-.571 0-.857-.072-.285 0-.57-.071-.856-.143h-.143-.142c.142-.143.356-.285.5-.428zm-11.917.999c.214.214.428.428.856.785.214.143.571.285.857.357.356.071.642.143.999.214.356 0 .642.071.856.071.071 0 .143 0 .214.072.071.07.143.07.214.07.428 0 .785.072 1.07.072.286.072.643.072 1 0 .142-.071.285-.071.428-.142.285-.214.642-.429.856-.714-.071 0-.143 0-.143-.071v-.143-.143s-.071-.071-.071-.143c-.071 0-.143-.07-.214-.142-.071-.072-.143-.143-.143-.214-.071-.143-.071-.214-.142-.286 0-.071-.072-.143-.143-.214-.286.071-.5 0-.785 0a1.466 1.466 0 0 0-.785 0c-.286-.143-.5-.143-.785-.214l-.642-.071c-.214-.072-.429-.072-.643-.143-.214-.071-.5-.143-.785-.285.214-.215.357-.429.571-.643.143-.214.357-.428.571-.57a.545.545 0 0 0 .357.142c.143 0 .214.071.357.143.142 0 .214 0 .357.071.142.072.214.072.356.072 0 0 0 .07.072.07h.071c.214.072.428.072.642.072.214 0 .429 0 .357.072.214 0 .357-.072.571-.143.214-.071.357-.143.57-.214a.541.541 0 0 0 .144-.286v-.285c-.072 0-.143-.071-.214-.143-.072-.071-.072-.142-.143-.214-.072-.071-.072-.214-.143-.285 0-.072-.071-.143-.143-.214l.072-.072v-.071c-.428-.143-.857-.214-1.285-.286-.357-.07-.785-.142-1.142-.285-.07-.071 0-.143 0-.214v-.286h.286c.143 0 .214 0 .285-.07a.54.54 0 0 0 .286.07h.357s.071 0 .142.072c.214-.072.5-.143.714-.143h.714c.214 0 .428.071.642.071h.642c.214 0 .428-.07.642-.142.214-.143.428-.286.571-.428v-.143c.072 0 .072-.071.072-.071.07 0 .07-.072.07-.072.072 0 .072-.071.072-.143l-.428-.428c-.143-.142-.214-.285-.285-.5v.072h-.072c0-.071-.071-.071-.071-.071h-.071v.142a.153.153 0 0 1-.143-.142h-.071v-.072c-.429-.07-.857-.07-1.142-.142-.286-.072-.643-.143-.928-.143-.285 0-.57-.071-.928-.071H23.15c-.215-.072-.429-.072-.643-.072h-.57c-.143.072-.357.072-.5.143-.143.071-.286.143-.428.285.071.143 0 .357 0 .5-.072.143-.072.357-.072.5v.499c.072.143.143.357.214.5-.142.142-.214.285-.356.428-.143.071-.214.214-.357.356-.143.143-.286.286-.357.429-.071.142-.214.285-.285.428-.072-.072-.143-.072-.143 0-.071.071-.071.071-.143.071 0 .072 0 .143-.071.214l-.143.143-.143.143c-.071.071-.142.142-.142.214-.072.142-.143.285-.143.428 0 .143-.071.357-.071.5-.072.142-.072.356-.072.499-.071.143-.071.285-.071.428.071.072.143.143.143.286 0 .142 0 .214.071.285zm-3.925-7.85c.072.143.214.214.214.286.143.143.357.285.5.428.142.071.285.143.357.214.142.071.214.143.285.214l.214.214c.143.072.214.143.357.214 0 .143.071.286.143.428.071.143.142.215.214.357.071.143.142.214.214.357a.545.545 0 0 1 .142.357 3.104 3.104 0 0 1-.499.428c-.143.143-.357.214-.57.285-.215.072-.43.143-.643.143-.214 0-.5.072-.714.072-.071 0-.143.07-.214.07 0 .072-.071.072-.143.144h-.356c-.072.071-.214.071-.286.071-.071.071-.214.071-.285.071h-.286c.214-.428.357-.785.5-1.141.143-.286.285-.643.357-1 .142-.356.142-.713.214-1.07.071-.357.071-.785.071-1.142h.214zm-3.14 6.78c.571-.143 1.285-.214 2.07-.286.642-.071 1.284-.143 1.926-.285.643-.143 1.214-.357 1.784-.571a5.715 5.715 0 0 0 1.5-1.07l.07-.143c.072-.072.072-.143.072-.143l.071-.071c0-.072.071-.072.071-.143.072-.5.072-1 0-1.499-.07-.428-.285-.856-.499-1.284-.285-.428-.57-.785-.856-1.142a12.406 12.406 0 0 1-.928-1.07l-.642-.428c-.214-.143-.428-.357-.643-.5l-.713-.5c-.214-.142-.5-.356-.714-.499-.071.071-.142.214-.214.357-.071.142-.214.285-.285.428v.57c0 .215 0 .358-.072.5l-.214-.071c-.071-.071-.142 0-.142.071.07.072 0 .143 0 .143 0 .071-.072.143-.072.214 0 .5-.071 1-.143 1.499-.07.5-.214.999-.428 1.498-.071.072-.142.072-.214.143-.071.214-.214.5-.357.714-.142.214-.356.5-.5.713a.541.541 0 0 1-.142.286l-.214.214c-.071.214-.071.5-.143.713-.071.214-.071.429-.071.643 0 .214.071.428.143.57.142.143.285.357.5.429zm28.759-13.987l.142.071c0 .072.072.143.072.214l-.072.286c.072.071.143.071.214.143.072 0 .143.07.215.07l.642.144h.285l.286.071c.071.071.142.071.214.071h.214c0 .072.071.072.143.072.142.071.214.071.356.071.072 0 .143-.071.143 0s.071.071.143.071c0 .072 0 .072-.072.143-.07 0-.07.071-.142.143-.072.071-.143.214-.214.285-.072.072-.143.143-.143.286-.071 0-.071.071-.143.071l-.143.071c-.07.215-.214.357-.356.571-.143.214-.286.357-.428.571-.215.357-.5.714-.714 1.07-.286.429-.428.928-.571 1.428.071.071.071.143.071.214v.642c0 .143 0 .214.072.357 0 0-.072.071-.072.143l.214.071c.072.071.143.071.215.143 0 .071.07.071.07.071.072 0 .072.071.072.071l.286.286c0 .071.071.071.071.143l.143.071c.285.143.57.071.856-.071a.75.75 0 0 0 .357-.643l-.071-.214c-.072 0-.072-.071-.143-.142 0-.072-.072-.072-.072-.072-.07 0-.07-.071-.07-.071v-.143l-.072-.143V30.5c0-.072.071-.072.071-.143l.071-.143c.072-.071.072-.071.072-.142.071-.072.143-.143.143-.215l.07-.07c0-.072.072-.072.072-.144.072-.071.143-.214.214-.285 0 0 .072 0 .072-.071.071-.072.071-.143.142-.143L43.56 29c.071-.143.214-.285.285-.428.143-.214.286-.357.428-.428.072-.143.143-.286.286-.428.071-.143.214-.214.357-.357.142-.143.214-.357.356-.5.143-.142.215-.285.357-.428.143-.143.286-.285.357-.428.071-.143.214-.285.357-.5l.5.072c.142 0 .356.071.57.071.357.072.643.072.928.143.285 0 .57.071.856.143l.214.071c.072 0 .143.071.214.071H50.267l.142.072.143-.143c.071 0 .071-.071.143-.071l.071-.143c.143-.214.143-.5.072-.714-.072-.214-.143-.356-.286-.5-.071-.07-.071-.142-.143-.213 0-.072-.071-.143-.071-.214l-.143-.143c-.142-.071-.214-.071-.356-.143-.143-.071-.286-.071-.429-.143-.356-.07-.713-.142-1.07-.214l-1.07-.142c-.215 0-.5-.072-.714-.072-.286-.071-.5-.071-.714-.142-.071-.072-.071-.143-.142-.214-.143-.143-.286-.215-.429-.215l-.142.072-.072.071c-.071 0-.071.072-.142.214l-1.285-.214-1.07-.214c-.217-.043-.407-.086-.602-.13l.03.059c.072.142.072.214.072.285v.286c.072.142.143.214.143.356 0 .143 0 .286-.071.429-.143.07-.215.07-.357.142-.143.072-.214.072-.357.072a3.215 3.215 0 0 0-.856-.368v.082zm0-.357v-.57c0-.143 0-.286.071-.429 0-.071.071-.143.143-.143l.071-.071.071-.214.214.071c.072 0 .143.072.215.072l.214.071c.14.028.27.056.397.084-.06-.106-.112-.176-.112-.298-.071-.143-.071-.214-.071-.357-.5-.285-1-.5-1.57-.642-.5-.071-1.07-.143-1.57-.143-.571 0-1.07 0-1.57.072-.5.07-1 .07-1.499 0-.071.07 0 .07 0 .07v.072h-.642c-.214.072-.428.072-.642.143-.214.071-.428.143-.642.285a1.667 1.667 0 0 0-.5.5c0 .071 0 .214-.071.285 0 .072-.072.143-.143.286v.285c-.071.072-.071.143-.143.286 0 .142.072.214.072.142a.541.541 0 0 1 .142.286c.072 0 .143 0 .143.071v.143c.286.214.571.357.856.5.357.142.643.285 1 .356.142.072.285.143.356.214.072 0 .214.072.286 0 .214.143.357.286.57.428.215.143.429.357.643.5h.071l.072.071v.072c.07 0 .07.071.07.071v.143c0 .071-.07.143-.142.214-.071.071-.143.071-.214.143-.071.071-.143.071-.214.142-.143.072-.143.143-.214.214l-.856.214c-.357.072-.643.072-.928.143-.285.072-.642.072-.928.072a2.28 2.28 0 0 1-.999-.215c-.143.072-.214.143-.285.215-.072.07-.143.142-.143.285-.071.143-.071.214-.071.357s-.072.214-.143.285v.072l.071.071v.071c0 .072 0 .072-.071.072l-.071.071v.071c.071 0 .071 0 .071.072l.071.071c0 .072 0 .214.072.286.071.07.071.142.285.142.143 0 .214 0 .357.072.143.071.214.142.357.142.142.072.214.072.357.072.07 0 .214 0 .285-.072-.071.072-.071.072 0 .072h.143c.357-.072.785-.072 1.213-.143.357-.071.785-.143 1.213-.285.428-.143.785-.357 1.142-.571.357-.214.642-.571.927-.928.072-.143.215-.428.215-.57.07-.144.07-.358.142-.572 0-.142-.071-.357-.142-.5-.072-.142-.143-.356-.143-.499-.072-.071-.072-.071-.143-.071 0 0-.071-.072-.071-.143.071-.143.071-.214.071-.357 0-.142 0-.214-.071-.356-.072-.143-.143-.286-.214-.357-.072-.072-.214-.143-.357-.214.071-.143 0-.214-.072-.286-.07-.071-.214-.143-.285-.214a.541.541 0 0 1-.285-.143l-.214-.214v-.142c.142.071.356.071.499.071.143 0 .285 0 .428-.071.072.071.214.071.357.071h.428c.143 0 .286.071.428.071.143 0 .214.072.286.214l1.07.214c.099.017.194.037.286.061v-.132zm-7.779-.285zm-8.848 2.997c.142.285.356.5.428.785.285.143.642.285.927.357.357.071.643.142 1 .214.285 0 .642.071.856.071.071 0 .143 0 .214.071.071.072.143.072.214.072.357 0 .714 0 1.07.071.357.071.714.071 1.07 0 .143-.071.286-.071.429-.143.357-.142.642-.428.928-.713-.072 0-.143 0-.143-.072v-.142-.143s-.071-.071-.071-.143c-.072 0-.143-.071-.215-.142-.07-.072-.142-.143-.142-.215-.072-.142-.072-.214-.143-.285 0-.071-.071-.143-.143-.214-.214.071-.5 0-.785 0a1.466 1.466 0 0 0-.785 0c-.214-.143-.5-.143-.785-.214l-.642-.071c-.214-.072-.428-.072-.642-.143-.286-.072-.571-.143-.856-.286.142-.214.356-.428.57-.642.215-.214.429-.357.643-.57.142.07.285.142.428.142.143 0 .285.071.428.143.143 0 .214 0 .357.071s.214.071.357.071c0 0 0 .072.071.072h.143c.285.071.5.071.713.071.214 0 .428 0 .643-.071.214 0 .356-.072.57-.143.143-.071.357-.143.571-.214a.541.541 0 0 0 .143-.286v-.285c-.143 0-.214-.071-.285-.143 0-.071-.072-.142-.143-.214-.071-.071-.071-.214-.143-.285 0-.072-.071-.143-.143-.214l.072-.072c.071 0 .071-.071.071-.071-.428-.143-.856-.214-1.284-.285-.428-.072-.857-.143-1.213-.286-.072-.143 0-.214 0-.285v-.286h.285c.143 0 .214 0 .285-.071.072.071.215.071.286.071h.428s.071 0 .143.072c.285-.072.5-.143.785-.143h.713c.286 0 .5.071.714.071h.642c.214 0 .428-.071.642-.142.286-.143.5-.286.643-.429v-.142c.071 0 .071-.072.071-.072.071 0 .071-.071.071-.071.072 0 .072-.071.072-.143l-.428-.428a2.137 2.137 0 0 1-.286-.57v.07h-.071c0-.07-.072-.07-.072-.07 0-.072-.07-.072-.07-.072v.142a.153.153 0 0 1-.144-.142h-.071v-.072c-.5-.071-.856-.071-1.213-.142-.357-.072-.714-.143-1-.143-.356 0-.641-.071-.998-.071h-1.142c-.285-.072-.5-.072-.714-.072h-.642c-.214.072-.428.072-.57.143-.215.071-.358.143-.5.285.071.143 0 .357 0 .5-.072.143-.072.357-.072.5v.499c.072.143.143.357.214.5-.07.214-.214.356-.356.499-.143.143-.214.285-.357.428-.143.143-.214.286-.357.428-.143.143-.214.357-.357.5-.071-.071-.142-.071-.142 0-.072.071-.072.071-.143.071 0 .072 0 .143-.072.214-.07 0-.07.072-.142.143l-.143.143c-.071.071-.071.142-.143.214-.071.143-.142.357-.142.5 0 .213-.072.356-.072.57-.071.143-.071.357-.071.5-.072.143-.072.285-.072.428.072.071.143.143.143.285 0 .072 0 .214.072.286zm-1.784-7.993c-.286.286-.643.5-1.07.571-.358.214-.786.286-1.214.357 0-.214-.143-.428-.285-.57-.143-.143-.286-.286-.429-.5.5-.143.928-.143 1.428-.143.5 0 1.07.143 1.57.285zm-.143 4.21c0 .143-.072.215-.214.215a.541.541 0 0 1-.286.143c-.071 0-.214 0-.285.07l-.214.215c-.286.071-.5.071-.785.143-.286.071-.571.142-.785.142-.214 0-.5.072-.785.072a1.74 1.74 0 0 1-.856 0c.214-.286.428-.642.642-.928.214-.285.357-.57.57-.856h1.428c.285.071.57.142.785.214.285.143.57.357.785.57zm-4.924-3.924c.071 0 .214 0 .285-.357a.217.217 0 0 0 .286 0c.071-.071.143-.214.214-.285.071-.072.214-.072.357-.072-.072.143-.072.286-.143.428-.071.143-.143.286-.214.357-.071.072-.143.143-.214.286-.072.142-.143.285-.143.428-.143.214-.285.357-.357.57l-.428.857c-.143.214-.285.357-.428.5v.142l-.214.214c-.071.143-.071.214-.143.286-.071.143-.071.214-.143.285-.07.143-.142.143-.214.214v.357c-.071 0-.071 0-.142.072 0 .07-.072.07-.072.142 0 .072-.071.143-.071.214 0 .072-.071.143-.071.214 0 .143 0 .286.071.429.071.142.071.214 0 .285.071.071.143.143.143.214.071.071 0 .143 0 .214l.142.143c0 .071.072.071.072.143l.071.142.143.143h.143l.285.143c.071-.072.143-.072.214-.143l.214-.214.286.285c.142.143.214.214.356.286a.541.541 0 0 0 .286.143.153.153 0 0 0 .143-.143c.07 0 .07.071.07.071l.072.072H18.94c.072 0 .143 0 .214-.072.571.072 1.07.072 1.642 0 .5-.071 1.07-.214 1.57-.357.142-.071.214-.142.285-.142.071 0 .071-.072.143-.072.071 0 .071-.071.143-.285.07-.071.285-.143.499-.357.071 0 .071-.071.071-.143 0-.071 0-.142-.071-.214a.153.153 0 0 0 .143-.142v-.286l-.072-.357v-.357a.153.153 0 0 1-.142-.142 3.48 3.48 0 0 0-.214-.5c-.072-.142-.143-.285-.286-.428-.071-.143-.214-.285-.285-.428-.143-.143-.214-.286-.286-.428l.643-.428.642-.429c.214-.142.428-.285.57-.5.143-.213.286-.499.357-.784 0 0 0-.071-.07-.071v-.072c.07-.142.07-.214 0-.357a.545.545 0 0 0-.144-.356c-.071-.143-.142-.214-.214-.357-.071-.143-.142-.214-.214-.357-.071 0-.143-.071-.214-.143 0-.071-.071-.142-.143-.214l-.214-.214a.541.541 0 0 0-.285-.143v.143c-.071-.071-.143-.143-.286-.214-.07 0-.142-.071-.214-.143h-.214c-.071 0-.142-.071-.285-.071s-.214-.071-.286-.071h-.214a4.04 4.04 0 0 0-1.284-.214h-1.142c-.071-.072-.071-.143-.071-.072 0 .072 0 0-.072 0h-.785c-.214 0-.5 0-.785.072-.214 0-.5.07-.713.214-.214.142-.428.285-.571.5 0 .356.143.713.285 1.07.143.356.429.642.714.856z"/></g></g></g></svg>