<svg xmlns="http://www.w3.org/2000/svg" width="15.438" height="11.175" viewBox="0 0 15.438 11.175">
  <g id="check_icon" transform="translate(0 0)">
    <path id="check_icon-2" data-name="check_icon" d="M9.55,17.575a1.1,1.1,0,0,1-.375-.063A.872.872,0,0,1,8.85,17.3L4.55,13a.926.926,0,0,1-.263-.713,1.008,1.008,0,0,1,.288-.712.948.948,0,0,1,.7-.275.948.948,0,0,1,.7.275L9.55,15.15l8.475-8.475A1.008,1.008,0,0,1,19.45,8.1l-9.2,9.2a.872.872,0,0,1-.325.212,1.1,1.1,0,0,1-.375.063Z" transform="translate(-4.286 -6.4)" fill="#767676"/>
  </g>
</svg>
