<svg id="icon-Instructors-hover" xmlns="http://www.w3.org/2000/svg" width="24" height="24" viewBox="0 0 24 24">
  <rect id="icon-frame" width="24" height="24" fill="none"/>
  <path id="group_FILL0_wght400_GRAD0_opsz24" d="M2,20a.984.984,0,0,1-1-1V17.2a2.983,2.983,0,0,1,1.6-2.65,14.867,14.867,0,0,1,3.15-1.163,13.84,13.84,0,0,1,6.5,0A14.866,14.866,0,0,1,15.4,14.55,2.983,2.983,0,0,1,17,17.2V19a.984.984,0,0,1-1,1Zm7-8a3.852,3.852,0,0,1-2.825-1.175A3.852,3.852,0,0,1,5,8,3.852,3.852,0,0,1,6.175,5.175,3.852,3.852,0,0,1,9,4a3.852,3.852,0,0,1,2.825,1.175A3.852,3.852,0,0,1,13,8a3.852,3.852,0,0,1-1.175,2.825A3.852,3.852,0,0,1,9,12ZM3,18H15v-.8a.943.943,0,0,0-.137-.5.977.977,0,0,0-.363-.35,13.056,13.056,0,0,0-2.725-1.013,11.594,11.594,0,0,0-5.55,0A13.056,13.056,0,0,0,3.5,16.35a.969.969,0,0,0-.362.35A.937.937,0,0,0,3,17.2Zm6-8a2.006,2.006,0,0,0,2-2A2.006,2.006,0,0,0,9,6,2.008,2.008,0,0,0,7,8a2.008,2.008,0,0,0,2,2ZM9,8ZM9,15Z" transform="translate(3)" fill="#39f"/>
</svg>
