<svg id="icon-advanced-48x48-white" xmlns="http://www.w3.org/2000/svg" width="32" height="32" viewBox="0 0 32 32">
  <rect id="Frame" width="32" height="32" fill="none"/>
  <path id="icon-advanced" d="M24.633,17.4a.979.979,0,0,1-.367-.067,1.016,1.016,0,0,1-.333-.233l-5.7-5.7A1.016,1.016,0,0,1,18,11.067a1.042,1.042,0,0,1,0-.733A1.016,1.016,0,0,1,18.233,10l5.7-5.7a1.016,1.016,0,0,1,.333-.233,1.042,1.042,0,0,1,.733,0,1.016,1.016,0,0,1,.333.233l5.7,5.7a1.016,1.016,0,0,1,.233.333,1.042,1.042,0,0,1,0,.733,1.016,1.016,0,0,1-.233.333l-5.7,5.7a1.016,1.016,0,0,1-.333.233A.979.979,0,0,1,24.633,17.4ZM7,15.4a.969.969,0,0,1-1-1V6.367a.969.969,0,0,1,1-1h8.033a.969.969,0,0,1,1,1V14.4a.969.969,0,0,1-1,1ZM20.933,29.333a.969.969,0,0,1-1-1V20.3a.969.969,0,0,1,1-1h8.033a.969.969,0,0,1,1,1v8.033a.969.969,0,0,1-1,1ZM7,29.333a.969.969,0,0,1-1-1V20.3a.969.969,0,0,1,1-1h8.033a.969.969,0,0,1,1,1v8.033a.969.969,0,0,1-1,1ZM8,13.4h6.033V7.367H8Zm16.733,1.7,4.3-4.3-4.3-4.3-4.3,4.3Zm-2.8,12.233h6.033V21.3H21.933ZM8,27.333h6.033V21.3H8ZM14.033,13.4ZM20.433,10.8ZM14.033,21.3ZM21.933,21.3Z" transform="translate(-2 -1.333)" fill="#fff"/>
</svg>
