<svg id="icon-Favorites-default" xmlns="http://www.w3.org/2000/svg" width="24" height="24" viewBox="0 0 24 24">
  <rect id="icon-frame" width="24" height="24" fill="none"/>
  <path id="stars_FILL0_wght400_GRAD0_opsz24" d="M12,14.95l2.775,2.1a.513.513,0,0,0,.6.012.408.408,0,0,0,.175-.537L14.5,13.05l2.725-1.95a.45.45,0,0,0,.175-.563.469.469,0,0,0-.475-.337H13.6L12.475,6.55a.5.5,0,0,0-.95,0L10.4,10.2H7.075a.469.469,0,0,0-.475.337.45.45,0,0,0,.175.563L9.5,13.05,8.45,16.525a.408.408,0,0,0,.175.537.513.513,0,0,0,.6-.012ZM12,22a9.732,9.732,0,0,1-3.9-.788A9.978,9.978,0,0,1,2.788,15.9,9.732,9.732,0,0,1,2,12a9.732,9.732,0,0,1,.788-3.9A9.984,9.984,0,0,1,8.1,2.787,9.743,9.743,0,0,1,12,2a9.743,9.743,0,0,1,3.9.787A9.984,9.984,0,0,1,21.212,8.1,9.732,9.732,0,0,1,22,12a9.732,9.732,0,0,1-.788,3.9A9.978,9.978,0,0,1,15.9,21.212,9.732,9.732,0,0,1,12,22ZM12,12Zm0,8a7.714,7.714,0,0,0,5.663-2.337A7.714,7.714,0,0,0,20,12a7.714,7.714,0,0,0-2.337-5.663A7.714,7.714,0,0,0,12,4,7.711,7.711,0,0,0,6.338,6.337,7.713,7.713,0,0,0,4,12a7.713,7.713,0,0,0,2.338,5.663A7.711,7.711,0,0,0,12,20Z" fill="#767676"/>
</svg>
