<svg id="icon-History-hover" xmlns="http://www.w3.org/2000/svg" width="24" height="24" viewBox="0 0 24 24">
  <rect id="icon-frame" width="24" height="24" fill="none"/>
  <path id="History" d="M12,3a9,9,0,1,1-8.963,8.183,1,1,0,1,1,1.992.18A7,7,0,1,0,7.1,7H8.5A1,1,0,0,1,8.614,9L8.5,9h-4A1,1,0,0,1,3.5,8.12L3.5,8V4A1,1,0,0,1,5.49,3.887L5.5,4V5.778A8.983,8.983,0,0,1,12,3Zm-.75,4a.75.75,0,0,1,.743.648l.007.1V12h2.25a.75.75,0,0,1,.1,1.493l-.1.007h-3a.75.75,0,0,1-.743-.648l-.007-.1v-5A.75.75,0,0,1,11.25,7Z" transform="translate(0 0.002)" fill="#39f"/>
</svg>
