<svg id="icon-Support-default" xmlns="http://www.w3.org/2000/svg" width="24" height="24" viewBox="0 0 24 24">
  <rect id="icon-frame" width="24" height="24" fill="none"/>
  <path id="support_FILL0_wght400_GRAD0_opsz24" d="M12,22a9.732,9.732,0,0,1-3.9-.788A9.978,9.978,0,0,1,2.788,15.9,9.732,9.732,0,0,1,2,12a9.732,9.732,0,0,1,.788-3.9A9.984,9.984,0,0,1,8.1,2.787,9.743,9.743,0,0,1,12,2a9.743,9.743,0,0,1,3.9.787A9.984,9.984,0,0,1,21.212,8.1,9.732,9.732,0,0,1,22,12a9.732,9.732,0,0,1-.788,3.9A9.978,9.978,0,0,1,15.9,21.212,9.732,9.732,0,0,1,12,22ZM9.1,19.45l1.2-2.75a4.67,4.67,0,0,1-1.812-1.163A5.662,5.662,0,0,1,7.3,13.7L4.55,14.85a7.5,7.5,0,0,0,1.775,2.8A7.821,7.821,0,0,0,9.1,19.45ZM7.3,10.3A5.662,5.662,0,0,1,8.488,8.463,4.67,4.67,0,0,1,10.3,7.3L9.15,4.55a7.835,7.835,0,0,0-4.6,4.6ZM12,15a2.988,2.988,0,0,0,3-3,2.988,2.988,0,0,0-3-3,2.988,2.988,0,0,0-3,3,2.988,2.988,0,0,0,3,3Zm2.9,4.45a7.844,7.844,0,0,0,4.55-4.55L16.7,13.7a4.742,4.742,0,0,1-1.15,1.812,5.592,5.592,0,0,1-1.8,1.188Zm1.8-9.2L19.45,9.1A7.845,7.845,0,0,0,14.9,4.55l-1.15,2.8a4.744,4.744,0,0,1,1.775,1.137A5.635,5.635,0,0,1,16.7,10.25Z" fill="#767676"/>
</svg>
