<svg id="icon-performance-48x48-white" xmlns="http://www.w3.org/2000/svg" width="32" height="32" viewBox="0 0 32 32">
  <rect id="Frame" width="32" height="32" fill="none"/>
  <path id="icon-performance" d="M26.4,11.483,24.967,8.15,21.5,6.617l3.467-1.5L26.4,1.95l1.433,3.167,3.467,1.5L27.833,8.15Zm0,19.833-1.433-3.2-3.467-1.5,3.467-1.5L26.4,21.75l1.433,3.367,3.467,1.5-3.467,1.5ZM11.767,26.183,8.7,19.617l-6.7-3,6.7-3,3.067-6.533,3.1,6.533,6.667,3-6.667,3Zm0-4.933,1.6-3.2,3.267-1.433-3.267-1.433-1.6-3.2-1.567,3.2L6.9,16.617l3.3,1.433ZM11.767,16.617Z" transform="translate(-0.667 -0.617)" fill="#fff"/>
</svg>
