<svg id="icon-Add_To_Favorite-hover" xmlns="http://www.w3.org/2000/svg" width="32" height="32" viewBox="0 0 32 32">
  <rect id="icon-frame" width="32" height="32" rx="16" fill="#767676"/>
  <path id="star_FILL0_wght400_GRAD0_opsz24" d="M8.3,20.125a.9.9,0,0,1-1.175.025.948.948,0,0,1-.4-1.125L8.15,14.4,4.525,11.825A.9.9,0,0,1,4.163,10.7a.936.936,0,0,1,.962-.7H9.6l1.45-4.8a1.089,1.089,0,0,1,.388-.538.938.938,0,0,1,1.124,0,1.089,1.089,0,0,1,.388.538L14.4,10h4.475a.938.938,0,0,1,.963.7.9.9,0,0,1-.363,1.125L15.85,14.4l1.425,4.625a.948.948,0,0,1-.4,1.125.9.9,0,0,1-1.175-.025L12,17.3Z" transform="translate(3.905 3.525)" fill="#fff"/>
</svg>
