<svg id="icon-Lock" xmlns="http://www.w3.org/2000/svg" width="24" height="24" viewBox="0 0 24 24">
  <rect id="icon-frame" width="24" height="24" fill="none"/>
  <path id="lock_FILL0_wght400_GRAD0_opsz24" d="M6,22a2.006,2.006,0,0,1-2-2V10A2.006,2.006,0,0,1,6,8H7V6A4.82,4.82,0,0,1,8.463,2.462,4.818,4.818,0,0,1,12,1a4.821,4.821,0,0,1,3.538,1.462A4.821,4.821,0,0,1,17,6V8h1a2,2,0,0,1,2,2V20a2,2,0,0,1-2,2ZM9,8h6V6a2.988,2.988,0,0,0-3-3A2.988,2.988,0,0,0,9,6ZM6,20H18V10H6Zm6-3a2.006,2.006,0,1,0-1.412-.587A1.928,1.928,0,0,0,12,17ZM12,15Z" transform="translate(0 1)" fill="#20252b"/>
</svg>
