<svg id="icon-style_star-48x48-blue-white" xmlns="http://www.w3.org/2000/svg" width="32" height="32" viewBox="0 0 32 32">
  <rect id="Frame" width="32" height="32" fill="none"/>
  <path id="icon-style_star" d="M17.859,18.717Zm-7,11.633a.435.435,0,0,1-.583.017.506.506,0,0,1-.183-.583l2.633-8.633L5.792,16.183a.435.435,0,0,1-.183-.55.468.468,0,0,1,.483-.35h8.567l2.733-9.067a.672.672,0,0,1,.183-.267.451.451,0,0,1,.567,0,.672.672,0,0,1,.183.267l2.733,9.067h8.567a.468.468,0,0,1,.483.35.435.435,0,0,1-.183.55L22.992,21.15l2.633,8.633a.506.506,0,0,1-.183.583.435.435,0,0,1-.583-.017l-7-5.333Zm2.433-4.5,4.567-3.467,4.567,3.467-1.833-5.767,4.2-2.733H19.759l-1.9-5.767-1.9,5.767H10.925l4.2,2.733Z" transform="translate(-1.576 -2.516)" fill="#fff"/>
</svg>
