<svg id="icon-Forum-hover" xmlns="http://www.w3.org/2000/svg" width="24" height="24" viewBox="0 0 24 24">
  <rect id="icon-frame" width="24" height="24" fill="none"/>
  <path id="chat_FILL0_wght400_GRAD0_opsz24" d="M7,14h6.025a.926.926,0,0,0,.7-.288A.989.989,0,0,0,14,13a.981.981,0,0,0-1-1H6.975a.928.928,0,0,0-.7.287A.993.993,0,0,0,6,13a.982.982,0,0,0,1,1Zm0-3H17.025a.926.926,0,0,0,.7-.288A.989.989,0,0,0,18,10a.982.982,0,0,0-1-1H6.975a.928.928,0,0,0-.7.287A.993.993,0,0,0,6,10a.982.982,0,0,0,1,1ZM7,8H17.025a.928.928,0,0,0,.7-.287A.993.993,0,0,0,18,7a.982.982,0,0,0-1-1H6.975a.928.928,0,0,0-.7.287A.993.993,0,0,0,6,7,.981.981,0,0,0,7,8ZM2,19.575V4a1.927,1.927,0,0,1,.588-1.413A1.925,1.925,0,0,1,4,2H20a1.928,1.928,0,0,1,1.413.587A1.928,1.928,0,0,1,22,4V16a2,2,0,0,1-2,2H6L3.7,20.3a.912.912,0,0,1-1.088.212A.941.941,0,0,1,2,19.575Zm2-2.4L5.175,16H20V4H4ZM4,4V4Z" transform="translate(0 1)" fill="#39f"/>
</svg>
