<svg id="icon-course-48x48-blue" xmlns="http://www.w3.org/2000/svg" width="32" height="32" viewBox="0 0 32 32">
  <rect id="Frame" width="32" height="32" fill="none"/>
  <path id="icon-course" d="M17.183,29.833a2.384,2.384,0,0,1-.5-.05,1.629,1.629,0,0,1-.467-.183L8.55,25.4a2.063,2.063,0,0,1-.75-.733,1.953,1.953,0,0,1-.283-1.033v-6.8L4.15,15a.821.821,0,0,1-.383-.367,1.13,1.13,0,0,1,0-1,.821.821,0,0,1,.383-.367l12.067-6.6a2.11,2.11,0,0,1,.467-.2,1.908,1.908,0,0,1,1,0,2.11,2.11,0,0,1,.467.2l13.2,7.167a1.147,1.147,0,0,1,.4.4.991.991,0,0,1,.133.5V23.7a1,1,0,1,1-2,0V15.3L26.85,16.833v6.8a1.953,1.953,0,0,1-.283,1.033,2.063,2.063,0,0,1-.75.733L18.15,29.6a1.629,1.629,0,0,1-.467.183,2.384,2.384,0,0,1-.5.05Zm0-9.967,10.5-5.733L17.183,8.5,6.75,14.133Zm0,8,7.667-4.233v-5.6l-6.7,3.6a1.629,1.629,0,0,1-.467.183,2.384,2.384,0,0,1-.5.05,2.154,2.154,0,0,1-.483-.05,1.67,1.67,0,0,1-.45-.183L9.517,17.967v5.667ZM17.217,19.867ZM17.183,22.867ZM17.183,22.867Z" transform="translate(-1.65 -2.4)" fill="#39f"/>
</svg>
