<svg id="icon-Live_Stream-hover" xmlns="http://www.w3.org/2000/svg" width="24" height="24" viewBox="0 0 24 24">
  <rect id="icon-frame" width="24" height="24" fill="none"/>
  <path id="LiveStream" d="M-6074.336-1629.934a1,1,0,0,1,0-1.414,8,8,0,0,0,1.729-8.716A8,8,0,0,0-6080-1645a8,8,0,0,0-7.39,4.935,8,8,0,0,0,1.729,8.716,1,1,0,0,1,0,1.414,1,1,0,0,1-1.416,0A9.968,9.968,0,0,1-6090-1637a10,10,0,0,1,10-10,10,10,0,0,1,10,10,9.963,9.963,0,0,1-2.922,7.064,1,1,0,0,1-.708.294A1,1,0,0,1-6074.336-1629.934Zm-2.835-2.823a1,1,0,0,1,0-1.415,4,4,0,0,0,.636-4.828,4,4,0,0,0-4.5-1.865A4,4,0,0,0-6084-1637a3.98,3.98,0,0,0,1.172,2.828,1,1,0,0,1,0,1.415,1,1,0,0,1-1.414,0,6,6,0,0,1,0-8.486,6,6,0,0,1,8.486,0,6,6,0,0,1,0,8.486,1,1,0,0,1-.708.293A.994.994,0,0,1-6077.171-1632.757ZM-6082-1637a2,2,0,0,1,2-2,2,2,0,0,1,2,2,2,2,0,0,1-2,2A2,2,0,0,1-6082-1637Z" transform="translate(6092 1650)" fill="#39f"/>
</svg>
