<svg id="icon-CLose-default" xmlns="http://www.w3.org/2000/svg" width="24" height="24" viewBox="0 0 24 24">
  <path id="close_FILL0_wght400_GRAD0_opsz24" d="M12.425,13.915,7.208,19.132a1.01,1.01,0,0,1-.745.293,1.054,1.054,0,0,1-.745-1.783l5.217-5.217L5.718,7.208a1.01,1.01,0,0,1-.293-.745,1.054,1.054,0,0,1,1.783-.745l5.217,5.217,5.217-5.217a1.054,1.054,0,0,1,1.49,1.49l-5.217,5.217,5.217,5.217a1.054,1.054,0,0,1-1.49,1.49Z" transform="translate(-0.425 -0.425)" fill="#767676"/>
  <rect id="icon-frame" width="24" height="24" fill="none"/>
</svg>
