<svg xmlns="http://www.w3.org/2000/svg" width="24" height="24">
    <path fill="none" d="M0 0h24v24H0z"/>
    <path d="M5 20a.984.984 0 0 1-1-1v-1.8a2.983 2.983 0 0 1 1.6-2.65 14.867 14.867 0 0 1 3.15-1.163 13.84 13.84 0 0 1 6.5 0 14.866 14.866 0 0 1 3.15 1.163A2.983 2.983 0 0 1 20 17.2V19a.984.984 0 0 1-1 1Zm7-8a3.852 3.852 0 0 1-2.825-1.175A3.852 3.852 0 0 1 8 8a3.852 3.852 0 0 1 1.175-2.825A3.852 3.852 0 0 1 12 4a3.852 3.852 0 0 1 2.825 1.175A3.852 3.852 0 0 1 16 8a3.852 3.852 0 0 1-1.175 2.825A3.852 3.852 0 0 1 12 12Zm-6 6h12v-.8a.943.943 0 0 0-.137-.5.977.977 0 0 0-.363-.35 13.056 13.056 0 0 0-2.725-1.013 11.594 11.594 0 0 0-5.55 0A13.056 13.056 0 0 0 6.5 16.35a.969.969 0 0 0-.362.35.937.937 0 0 0-.138.5Zm6-8a2.006 2.006 0 0 0 2-2 2.006 2.006 0 0 0-2-2 2.008 2.008 0 0 0-2 2 2.008 2.008 0 0 0 2 2Zm0-2Zm0 7Z" fill="#767676"/>
</svg>
