<svg id="Icon-PrivateLessons-hover" xmlns="http://www.w3.org/2000/svg" width="24" height="24" viewBox="0 0 24 24">
  <rect id="icon-frame" width="24" height="24" fill="none"/>
  <path id="mic_FILL0_wght400_GRAD0_opsz24" d="M12.06,14a2.931,2.931,0,0,1-2.143-.875A2.881,2.881,0,0,1,9.034,11V5a2.881,2.881,0,0,1,.883-2.125,3.063,3.063,0,0,1,4.287,0A2.881,2.881,0,0,1,15.086,5v6a2.881,2.881,0,0,1-.883,2.125A2.931,2.931,0,0,1,12.06,14ZM12.06,8Zm0,13a.978.978,0,0,1-.718-.288.961.961,0,0,1-.29-.712V17.925a6.97,6.97,0,0,1-5.976-5.85.834.834,0,0,1,.227-.75A1.05,1.05,0,0,1,6.109,11a.893.893,0,0,1,.63.262,1.181,1.181,0,0,1,.353.638A5.035,5.035,0,0,0,12.06,16a5.035,5.035,0,0,0,4.968-4.1,1.148,1.148,0,0,1,.366-.638A.936.936,0,0,1,18.036,11a1.02,1.02,0,0,1,.782.325.834.834,0,0,1,.227.75,6.97,6.97,0,0,1-5.976,5.85V20a.963.963,0,0,1-.289.712A.981.981,0,0,1,12.06,21Zm0-9a.981.981,0,0,0,.719-.288A.963.963,0,0,0,13.069,11V5a.966.966,0,0,0-.289-.713,1.043,1.043,0,0,0-1.437,0,.964.964,0,0,0-.29.713v6a.961.961,0,0,0,.29.712A.978.978,0,0,0,12.06,12Z" transform="translate(-0.06 1)" fill="#39f"/>
</svg>
