<svg id="icon-Blog_RSS-hover" xmlns="http://www.w3.org/2000/svg" width="24" height="24" viewBox="0 0 24 24">
  <rect id="icon-frame" width="24" height="24" fill="none"/>
  <path id="rss_feed_FILL0_wght400_GRAD0_opsz24" d="M5,21a2,2,0,0,1,0-4,2,2,0,0,1,0,4Zm13.475,0a1.437,1.437,0,0,1-1.037-.425,1.7,1.7,0,0,1-.513-1.05,13.362,13.362,0,0,0-1.312-4.6A14.275,14.275,0,0,0,9.075,8.387a13.362,13.362,0,0,0-4.6-1.312,1.675,1.675,0,0,1-1.05-.525A1.511,1.511,0,0,1,3,5.475a1.367,1.367,0,0,1,.438-1.038,1.293,1.293,0,0,1,1.037-.362,16.224,16.224,0,0,1,5.775,1.55,17.178,17.178,0,0,1,8.125,8.125,16.224,16.224,0,0,1,1.55,5.775,1.274,1.274,0,0,1-.375,1.037A1.434,1.434,0,0,1,18.475,21Zm-6,0a1.517,1.517,0,0,1-1.037-.413,1.844,1.844,0,0,1-.588-1.062,7.785,7.785,0,0,0-2.2-4.175,7.785,7.785,0,0,0-4.175-2.2,1.816,1.816,0,0,1-1.062-.6A1.594,1.594,0,0,1,3,11.475a1.338,1.338,0,0,1,.45-1.05A1.24,1.24,0,0,1,4.475,10.1a10.726,10.726,0,0,1,6.313,3.112A10.726,10.726,0,0,1,13.9,19.525a1.206,1.206,0,0,1-.35,1.025,1.415,1.415,0,0,1-1.075.45Z" transform="translate(0.535 -1.07)" fill="#39f"/>
</svg>
