<svg id="icon-Search" xmlns="http://www.w3.org/2000/svg" width="24" height="24" viewBox="0 0 24 24">
  <rect id="icon-frame" width="24" height="24" fill="none"/>
  <path id="search_FILL0_wght400_GRAD0_opsz24" d="M19.261,20.718l-5.727-5.735a6.092,6.092,0,0,1-1.764.973,6.226,6.226,0,0,1-2.122.358,6.412,6.412,0,0,1-4.717-1.933A6.432,6.432,0,0,1,3,9.657,6.432,6.432,0,0,1,4.931,4.933,6.412,6.412,0,0,1,9.648,3a6.415,6.415,0,0,1,4.718,1.933A6.433,6.433,0,0,1,16.3,9.657a6.25,6.25,0,0,1-.358,2.125,6.106,6.106,0,0,1-.972,1.767l5.753,5.761A.941.941,0,0,1,21,20a.983.983,0,0,1-.307.717,1.051,1.051,0,0,1-1.432,0ZM9.648,14.266a4.585,4.585,0,0,0,4.6-4.609,4.585,4.585,0,0,0-4.6-4.609,4.585,4.585,0,0,0-4.6,4.609,4.585,4.585,0,0,0,4.6,4.609Z" fill="#767676"/>
</svg>
