<svg id="icon-WhereDoIStart-hover" xmlns="http://www.w3.org/2000/svg" width="24" height="24" viewBox="0 0 24 24">
  <rect id="icon-frame" width="24" height="24" fill="none"/>
  <path id="explore_FILL0_wght400_GRAD0_opsz24" d="M7.425,17.075l6.25-2.925a1.09,1.09,0,0,0,.475-.475l2.925-6.25a.369.369,0,0,0-.5-.5L10.325,9.85a1.09,1.09,0,0,0-.475.475l-2.925,6.25a.369.369,0,0,0,.5.5ZM12,13a.982.982,0,1,1,.713-.288A.965.965,0,0,1,12,13Zm0,9a9.732,9.732,0,0,1-3.9-.788A9.978,9.978,0,0,1,2.788,15.9,9.732,9.732,0,0,1,2,12a9.732,9.732,0,0,1,.788-3.9A9.984,9.984,0,0,1,8.1,2.787,9.743,9.743,0,0,1,12,2a9.743,9.743,0,0,1,3.9.787A9.984,9.984,0,0,1,21.212,8.1,9.732,9.732,0,0,1,22,12a9.732,9.732,0,0,1-.788,3.9A9.978,9.978,0,0,1,15.9,21.212,9.732,9.732,0,0,1,12,22ZM12,12Zm0,8a7.714,7.714,0,0,0,5.663-2.337A7.714,7.714,0,0,0,20,12a7.714,7.714,0,0,0-2.337-5.663A7.714,7.714,0,0,0,12,4,7.711,7.711,0,0,0,6.338,6.337,7.713,7.713,0,0,0,4,12a7.713,7.713,0,0,0,2.338,5.663A7.711,7.711,0,0,0,12,20Z" fill="#39f"/>
</svg>
