<svg id="singing_feedback" xmlns="http://www.w3.org/2000/svg" width="24" height="24" viewBox="0 0 24 24">
  <rect id="icon-frame" width="24" height="24" fill="none"/>
  <path id="perm_contact_calendar_FILL1_wght400_GRAD0_opsz24" d="M5,18.85a10.086,10.086,0,0,1,3.138-2.088A9.742,9.742,0,0,1,12,16a9.749,9.749,0,0,1,3.863.762A10.089,10.089,0,0,1,19,18.85V6H5ZM12,14a3.5,3.5,0,0,1-3.5-3.5A3.5,3.5,0,0,1,12,7a3.5,3.5,0,0,1,3.5,3.5A3.5,3.5,0,0,1,12,14ZM5,22a2,2,0,0,1-2-2V6A2.006,2.006,0,0,1,5,4H6V2H8V4h8V2h2V4h1a2.006,2.006,0,0,1,2,2V20a2,2,0,0,1-2,2Z" fill="#767676"/>
</svg>
