<svg xmlns="http://www.w3.org/2000/svg" width="16" height="16" viewBox="0 0 16 16">
  <g id="star-filled" transform="translate(0 0)">
    <path id="star_FILL0_wght400_GRAD0_opsz24" d="M8.351,20.242a.912.912,0,0,1-1.189.025.953.953,0,0,1-.4-1.133L8.2,14.474,4.53,11.88a.907.907,0,0,1-.366-1.133.947.947,0,0,1,.974-.705H9.666l1.467-4.836a1.1,1.1,0,0,1,.393-.542.953.953,0,0,1,1.138,0,1.1,1.1,0,0,1,.393.542l1.467,4.836h4.529a.949.949,0,0,1,.975.705.908.908,0,0,1-.367,1.133l-3.669,2.594,1.442,4.66a.953.953,0,0,1-.4,1.133.912.912,0,0,1-1.189-.025L12.1,17.4Z" transform="translate(-4.095 -4.475)" fill="#767676"/>
  </g>
</svg>
