<svg id="Google-default" xmlns="http://www.w3.org/2000/svg" width="24" height="24" viewBox="0 0 24 24">
  <rect id="SocialMedia-frame" width="24" height="24" fill="none"/>
  <path id="Union_5" data-name="Union 5" d="M6884.064,3729.492A10,10,0,0,1,6893,3715a9.608,9.608,0,0,1,6.69,2.6l-2.867,2.869a5.4,5.4,0,0,0-3.823-1.5,6.025,6.025,0,1,0,3.386,11.092,4.6,4.6,0,0,0,2-3.018H6893v-3.869h9.42a11.6,11.6,0,0,1,.181,2.046,9.758,9.758,0,0,1-2.981,7.351A9.553,9.553,0,0,1,6893,3735,10,10,0,0,1,6884.064,3729.492Z" transform="translate(-6881 -3713.001)" fill="#20252b" stroke="rgba(0,0,0,0)" stroke-miterlimit="10" stroke-width="1"/>
</svg>
