<svg id="Instagram-Footer-default" xmlns="http://www.w3.org/2000/svg" width="40" height="40" viewBox="0 0 40 40">
  <rect id="SocialMedia-frame" width="40" height="40" rx="20" fill="#f6f6f6" opacity="0.15"/>
  <path id="Instagram" d="M5.875,19.94a7.355,7.355,0,0,1-2.426-.464,4.931,4.931,0,0,1-1.771-1.154A4.9,4.9,0,0,1,.525,16.55,7.351,7.351,0,0,1,.06,14.123c-.048-1.058-.06-1.4-.06-4.06Q0,10.032,0,10C0,7.285.012,6.944.06,5.877A7.356,7.356,0,0,1,.525,3.45,4.889,4.889,0,0,1,1.678,1.679,4.919,4.919,0,0,1,3.449.525,7.35,7.35,0,0,1,5.875.06C6.942.012,7.283,0,10,0s3.056.012,4.121.06a7.332,7.332,0,0,1,2.426.464,4.9,4.9,0,0,1,1.77,1.154A4.9,4.9,0,0,1,19.469,3.45a7.305,7.305,0,0,1,.464,2.427c.049,1.066.06,1.408.06,4.123s-.012,3.056-.06,4.123a7.305,7.305,0,0,1-.464,2.427,5.115,5.115,0,0,1-2.923,2.925,7.356,7.356,0,0,1-2.427.464c-1.066.049-1.407.06-4.121.06S6.942,19.988,5.875,19.94Zm-4.015-5.9A5.507,5.507,0,0,0,2.2,15.9a3.094,3.094,0,0,0,.748,1.149A3.116,3.116,0,0,0,4.1,17.8a5.534,5.534,0,0,0,1.857.344c1.054.049,1.37.059,4.039.059s2.986-.01,4.04-.059a5.5,5.5,0,0,0,1.857-.344,3.312,3.312,0,0,0,1.9-1.9,5.535,5.535,0,0,0,.344-1.858c.049-1.055.059-1.371.059-4.041s-.01-2.986-.059-4.041A5.505,5.505,0,0,0,17.791,4.1a3.094,3.094,0,0,0-.748-1.15A3.1,3.1,0,0,0,15.894,2.2a5.586,5.586,0,0,0-1.857-.344C12.983,1.812,12.666,1.8,10,1.8s-2.985.009-4.039.058A5.528,5.528,0,0,0,4.1,2.2a3.07,3.07,0,0,0-1.149.749A3.1,3.1,0,0,0,2.2,4.1,5.557,5.557,0,0,0,1.86,5.959C1.813,7.014,1.8,7.33,1.8,10q0,.031,0,.062C1.8,12.675,1.812,13,1.86,14.041Zm3-4.041A5.134,5.134,0,1,1,10,15.134,5.134,5.134,0,0,1,4.864,10ZM10,13.333A3.334,3.334,0,1,0,6.665,10,3.334,3.334,0,0,0,10,13.333Zm4.877-7.563a1.2,1.2,0,0,1,.459-2.309h0a1.2,1.2,0,0,1,1.2,1.193,1.2,1.2,0,0,1-1.2,1.207A1.2,1.2,0,0,1,14.874,5.771Z" transform="translate(10 10)" fill="#f6f6f6"/>
</svg>
