<svg id="Linkedin-hover" xmlns="http://www.w3.org/2000/svg" width="24" height="24" viewBox="0 0 24 24">
  <rect id="SocialMedia-frame" width="24" height="24" fill="none"/>
  <path id="Linkedin" d="M30.347,44.239v-10.8H26.762v10.8h3.585ZM28.555,31.97a1.871,1.871,0,1,0,.024-3.73,1.87,1.87,0,1,0-.047,3.73h.023Zm3.776,12.269h3.585V38.211a2.46,2.46,0,0,1,.118-.875,1.962,1.962,0,0,1,1.84-1.312c1.3,0,1.816.99,1.816,2.441v5.775h3.585v-6.19c0-3.316-1.768-4.859-4.127-4.859a3.571,3.571,0,0,0-3.255,1.819h.024V33.444H32.332c.047,1.013,0,10.8,0,10.8Z" transform="translate(-22.551 -24.239)" fill="#39f"/>
</svg>
