<svg id="MySpace-hover" xmlns="http://www.w3.org/2000/svg" width="24" height="24" viewBox="0 0 24 24">
  <rect id="SocialMedia-frame" width="24" height="24" fill="none"/>
  <path id="MySpace" d="M10.341,18.4a.384.384,0,0,1-.383-.383V15.334H4.979a.383.383,0,0,1-.383-.383V13.034H.383A.384.384,0,0,1,0,12.65V8.817A2.672,2.672,0,0,1,5.058,7.6a3.055,3.055,0,0,1,5.666,1.6v.266a4.209,4.209,0,0,1,7.66,2.417v6.134A.383.383,0,0,1,18,18.4ZM10.724,3.45A3.447,3.447,0,1,1,14.171,6.9,3.452,3.452,0,0,1,10.724,3.45ZM5.362,3.066a2.3,2.3,0,1,1,2.3,2.3A2.3,2.3,0,0,1,5.362,3.066Zm-4.6.384A1.915,1.915,0,1,1,2.681,5.367,1.916,1.916,0,0,1,.767,3.451Z" transform="translate(3 3)" fill="#39f"/>
</svg>
