<svg id="Paypal-logo" xmlns="http://www.w3.org/2000/svg" width="24" height="24" viewBox="0 0 24 24">
  <g id="Boundary" stroke="rgba(0,0,0,0)" stroke-width="1" opacity="0">
    <rect width="24" height="24" stroke="none"/>
    <rect x="0.5" y="0.5" width="23" height="23" fill="none"/>
  </g>
  <g id="Group_2019" data-name="Group 2019" transform="translate(4 2)">
    <path id="Path_1" data-name="Path 1" d="M173.943,386.87h4.928c2.645,0,3.642,1.339,3.488,3.31-.254,3.249-2.218,5.045-4.823,5.045H176.22c-.357,0-.6.236-.694.877l-.564,3.724c-.037.242-.164.384-.355.4h-3.09c-.291,0-.394-.222-.318-.7l1.887-11.947A.753.753,0,0,1,173.943,386.87Z" transform="translate(-165.52 -380.228)" fill="#0094cb" fill-rule="evenodd"/>
    <path id="Path_4" data-name="Path 4" d="M147.2,354.543h5.722c1.612,0,3.523.052,4.8,1.183a3.891,3.891,0,0,1,1.2,3.251c-.351,4.382-2.964,6.836-6.469,6.836h-2.822c-.48,0-.8.319-.934,1.184l-.787,5.024c-.051.326-.192.518-.449.541h-3.525c-.391,0-.53-.3-.428-.95l2.538-16.116A1.014,1.014,0,0,1,147.2,354.543Z" transform="translate(-143.479 -354.543)" fill="#003082" fill-rule="evenodd"/>
    <path id="Path_5" data-name="Path 5" d="M179.427,393.029l.861-5.452a.753.753,0,0,1,.858-.707h4.928a4.814,4.814,0,0,1,1.991.362c-.5,3.352-2.663,5.215-5.5,5.215H180.13C179.81,392.447,179.571,392.61,179.427,393.029Z" transform="translate(-172.723 -381.838)" fill="#00236d" fill-rule="evenodd"/>
  </g>
</svg>
