<svg id="Snapchat-hover" xmlns="http://www.w3.org/2000/svg" width="24" height="24" viewBox="0 0 24 24">
  <rect id="SocialMedia-frame" width="24" height="24" fill="none"/>
  <path id="Snapchat" d="M32.392,25.063a5.063,5.063,0,0,1,5.121,4.906c0,.628.021,1.206.058,1.738a.628.628,0,0,0,.635.572.67.67,0,0,0,.147-.016l.875-.2a.51.51,0,0,1,.111-.012.484.484,0,0,1,.477.361.612.612,0,0,1-.415.715l-1.328.513a.676.676,0,0,0-.421.813c1.065,3.77,4.04,3.378,4.04,3.869,0,.617-2.242.7-2.445.9s-.009,1.135-.461,1.318a1,1,0,0,1-.354.046c-.341,0-.823-.064-1.331-.064a3.243,3.243,0,0,0-1.306.227c-1.074.475-2.109,1.362-3.393,1.362s-2.319-.887-3.393-1.362a3.242,3.242,0,0,0-1.306-.227c-.508,0-.99.064-1.331.064a1,1,0,0,1-.354-.046c-.453-.182-.259-1.124-.461-1.318s-2.445-.281-2.445-.9c0-.491,2.975-.1,4.04-3.869a.676.676,0,0,0-.421-.813L25.4,33.129a.612.612,0,0,1-.415-.715.484.484,0,0,1,.477-.361.508.508,0,0,1,.111.012l.875.2a.67.67,0,0,0,.147.016.628.628,0,0,0,.635-.572c.037-.532.057-1.11.058-1.738A5.046,5.046,0,0,1,32.392,25.063Zm0-1.063h0a6.324,6.324,0,0,0-4.384,1.762,6.011,6.011,0,0,0-1.334,1.894,5.673,5.673,0,0,0-.495,2.312c0,.392-.009.772-.025,1.136l-.325-.073a1.662,1.662,0,0,0-1.348.282,1.516,1.516,0,0,0-.577.871A1.668,1.668,0,0,0,25,34.122l.974.377A3.493,3.493,0,0,1,23.343,37a4.121,4.121,0,0,0-.571.2A1.222,1.222,0,0,0,22,38.324a1.368,1.368,0,0,0,.6,1.111,2.606,2.606,0,0,0,.732.357,9.495,9.495,0,0,0,1.265.288,2.649,2.649,0,0,0,.092.43,1.522,1.522,0,0,0,.9,1.01,2.107,2.107,0,0,0,.785.129c.195,0,.4-.015.618-.03.234-.017.475-.034.713-.034a2.132,2.132,0,0,1,.84.129c.269.119.555.28.858.45a6.016,6.016,0,0,0,3,1.01,6.016,6.016,0,0,0,3-1.01c.3-.17.588-.331.858-.45a2.131,2.131,0,0,1,.84-.129c.238,0,.48.017.713.034.218.015.423.03.618.03a2.107,2.107,0,0,0,.785-.129,1.522,1.522,0,0,0,.9-1.01,2.644,2.644,0,0,0,.092-.43,9.5,9.5,0,0,0,1.265-.288,2.605,2.605,0,0,0,.732-.357,1.368,1.368,0,0,0,.6-1.111,1.222,1.222,0,0,0-.772-1.117,4.116,4.116,0,0,0-.571-.2,3.493,3.493,0,0,1-2.636-2.5l.974-.377a1.668,1.668,0,0,0,1.1-1.938,1.516,1.516,0,0,0-.577-.871,1.662,1.662,0,0,0-1.348-.282l-.325.073c-.016-.364-.025-.744-.025-1.136a5.647,5.647,0,0,0-.5-2.314,6.019,6.019,0,0,0-1.341-1.893A6.355,6.355,0,0,0,32.393,24Z" transform="translate(-20 -22)" fill="#39f"/>
</svg>
