<svg id="TikTok-hover" xmlns="http://www.w3.org/2000/svg" width="24" height="24" viewBox="0 0 24 24">
  <rect id="SocialMedia-frame" width="24" height="24" fill="none"/>
  <path id="TikTok" d="M40.9,27.2q-.2-.1-.387-.225a5.438,5.438,0,0,1-.993-.844,4.683,4.683,0,0,1-1.119-2.309h0A2.846,2.846,0,0,1,38.365,23H34.991V36.044c0,.175,0,.348-.007.519,0,.021,0,.041,0,.064a.141.141,0,0,1,0,.029v.007a2.864,2.864,0,0,1-1.441,2.274,2.816,2.816,0,0,1-1.4.368,2.864,2.864,0,0,1,0-5.729,2.819,2.819,0,0,1,.876.139l0-3.435a6.267,6.267,0,0,0-4.828,1.413,6.621,6.621,0,0,0-1.444,1.781A6.173,6.173,0,0,0,26,36.308a6.685,6.685,0,0,0,.362,2.24v.008a6.592,6.592,0,0,0,.916,1.67A6.855,6.855,0,0,0,28.743,41.6V41.6l.008.008A6.312,6.312,0,0,0,32.2,42.641a6.1,6.1,0,0,0,2.556-.565,6.414,6.414,0,0,0,2.075-1.56,6.484,6.484,0,0,0,1.131-1.879,7.04,7.04,0,0,0,.407-2.15v-6.92c.041.025.586.385.586.385a7.8,7.8,0,0,0,2.01.831,11.577,11.577,0,0,0,2.063.282V27.717A4.375,4.375,0,0,1,40.9,27.2Z" transform="translate(-23 -21)" fill="#39f"/>
</svg>
