<svg id="Twitter-Footer-default" xmlns="http://www.w3.org/2000/svg" width="40" height="40" viewBox="0 0 40 40">
  <rect id="SocialMedia-frame" width="40" height="40" rx="20" fill="#f6f6f6" opacity="0.15"/>
  <path id="Twitter" d="M42.285,28.674a8.352,8.352,0,0,1-2.064.589c.332-.057.821-.655,1.015-.9a3.8,3.8,0,0,0,.664-1.23c0-.033.033-.081,0-.1a.114.114,0,0,0-.109,0,10.435,10.435,0,0,1-2.444.95.171.171,0,0,1-.171-.043,2.368,2.368,0,0,0-.214-.223A4.451,4.451,0,0,0,37.8,26.96a4.1,4.1,0,0,0-1.817-.3,4.4,4.4,0,0,0-1.727.475,4.476,4.476,0,0,0-1.367,1.159,4.39,4.39,0,0,0-.83,1.662,4.568,4.568,0,0,0-.043,1.757c0,.1,0,.114-.085.1A13.061,13.061,0,0,1,23.5,27.534c-.1-.114-.152-.114-.233,0a4.284,4.284,0,0,0,.726,5.048c.166.157.337.309.517.451a4.233,4.233,0,0,1-1.623-.451c-.095-.062-.147-.029-.152.085a2.8,2.8,0,0,0,0,.475,4.312,4.312,0,0,0,2.657,3.438,2.693,2.693,0,0,0,.536.166,4.85,4.85,0,0,1-1.59.047c-.114-.024-.157.038-.114.147a4.5,4.5,0,0,0,3.321,2.8c.152.024.3.024.474.062l-.028.029c-.327.6-1.651,1-2.259,1.211a8.112,8.112,0,0,1-3.464.446c-.185-.029-.228-.024-.275,0s0,.076.052.123c.237.157.474.294.721.427a11.354,11.354,0,0,0,2.315.95,12.333,12.333,0,0,0,11.981-2.807c2.458-2.441,3.321-5.808,3.321-9.18,0-.128.157-.2.247-.271a8.15,8.15,0,0,0,1.627-1.7.5.5,0,0,0,.114-.342h0C42.375,28.622,42.375,28.636,42.285,28.674Z" transform="translate(-11.977 -14.652)" fill="#f6f6f6"/>
</svg>
