<svg id="Youtube-default" xmlns="http://www.w3.org/2000/svg" width="24" height="24" viewBox="0 0 24 24">
  <rect id="SocialMedia-frame" width="24" height="24" fill="none"/>
  <path id="Youtube" d="M11.39,15.986c-.071,0-7.141-.005-8.9-.476A2.86,2.86,0,0,1,.475,13.49,30.036,30.036,0,0,1,0,7.993,30.047,30.047,0,0,1,.475,2.5,2.864,2.864,0,0,1,2.49.476C4.249.005,11.319,0,11.39,0s7.144.005,8.9.476A2.862,2.862,0,0,1,22.3,2.5a30.021,30.021,0,0,1,.475,5.5,30.01,30.01,0,0,1-.475,5.5,2.86,2.86,0,0,1-2.015,2.02C18.534,15.98,11.461,15.986,11.39,15.986ZM9.114,4.567h0v6.852l5.918-3.426L9.114,4.567Z" transform="translate(1 4)" fill="#20252b"/>
</svg>
