<svg xmlns="http://www.w3.org/2000/svg" viewBox="0 0 295.39 278.6"><defs><style>.cls-1{fill:#c1ad1e;}</style></defs><title>Award 2 GOLD</title><g id="Layer_2" data-name="Layer 2"><g id="OBJECTS"><path class="cls-1" d="M119.58,261.12a35.69,35.69,0,0,0-2.67-16.31c-3.35-8.06-13.46-11.54-13.46-11.54s-2.45,11.65,2.31,19.33c1.54,2.47,4.45,4.9,7.19,6.82a123.07,123.07,0,0,1-14.43-5.15A34.69,34.69,0,0,0,98.74,238c-1.86-8.35-11-13.43-11-13.43s-4.34,10.83-1,19c1.08,2.68,3.53,5.57,5.87,7.9-2.84-1.38-5.76-2.92-8.73-4.67C82.16,246,80.51,245,78.87,244a33.87,33.87,0,0,0,3.06-15.82c-.37-8.38-8.36-14.84-8.36-14.84s-6,9.72-4.25,18.21c.62,3,2.74,6.44,4.72,9.2a112.72,112.72,0,0,1-12.59-10.54,33.09,33.09,0,0,0,5.67-14.8c1.07-8.15-5.54-15.74-5.54-15.74s-7.47,8.35-7.2,16.84c.1,2.93,1.5,6.56,2.92,9.53a133.24,133.24,0,0,1-10.43-12.55,32.69,32.69,0,0,0,7.86-13.19c2.42-7.68-2.66-16.14-2.66-16.14s-8.64,6.79-9.82,15c-.39,2.7.25,6.2,1.06,9.21a135.64,135.64,0,0,1-7.91-13.6,32,32,0,0,0,9.93-11.46c3.64-7,.17-16,.17-16s-9.49,5.08-12,12.84c-.88,2.67-.8,6.4-.5,9.54a123.31,123.31,0,0,1-5.68-15.16A31.36,31.36,0,0,0,39,165.06c4.7-6.14,2.9-15.44,2.9-15.44s-10,3.29-13.8,10.34c-1.39,2.59-1.94,6.51-2.15,9.72A114,114,0,0,1,23,153a30.55,30.55,0,0,0,13-7.14c5.58-5.13,5.42-14.41,5.42-14.41S31.14,133,26.31,139.12c-1.8,2.29-3,6-3.75,9.1a111,111,0,0,1-.23-17.57,29.77,29.77,0,0,0,14-4.7c6.26-4,7.68-13,7.68-13s-10.13-.33-15.85,4.8c-2.29,2-4.21,5.87-5.46,8.82a123,123,0,0,1,3.27-18.29,29.35,29.35,0,0,0,14.23-2.17c6.72-2.79,9.63-11.23,9.63-11.23s-9.73-2-16.12,1.94c-2.47,1.54-4.9,4.73-6.6,7.33A132.85,132.85,0,0,1,33.45,87a28.74,28.74,0,0,0,14.09.33c7-1.55,11.2-9.19,11.2-9.19s-9-3.63-15.88-.88c-2.67,1.07-5.57,3.77-7.65,6a131.09,131.09,0,0,1,9.2-15.91,28,28,0,0,0,13.78,2.84c7-.31,12.37-7,12.37-7s-8.09-5-15.17-3.54c-3,.64-6.73,3.15-9.15,5A117.19,117.19,0,0,1,58.52,50.11a27.38,27.38,0,0,0,13,5.24c6.8.89,13.14-4.61,13.14-4.61s-7-6.24-14-6c-3.36.11-7.82,2.27-10.43,3.72a92,92,0,0,1,7.25-6.29c2.74-2.29,5.44-4.35,8.11-6.24a26.8,26.8,0,0,0,11.65,7.25c6.41,2,13.46-2.23,13.46-2.23S95,33.74,88.14,32.76c-3.21-.46-7.78.82-10.57,1.76a129.74,129.74,0,0,1,16.76-9.7A26.15,26.15,0,0,0,104.48,34c5.84,3,13.36.14,13.36.14s-4.24-7.91-10.7-10c-3.38-1.1-8.78-.4-11.43.05a122.31,122.31,0,0,1,11.68-4.72c1.38.68,5.94,2.64,10.06,1.23a20.28,20.28,0,0,0,9.21-6.27s-6.36-2.44-10.14-1.8c-4.73.82-8.6,5.42-9.4,6.42-2.62.83-5.76,1.92-9.3,3.38,2.28-1.56,6.46-4.7,8.07-7.76,3.19-6,.75-14.65.75-14.65s-7.43,3.14-9.53,9.38A26.31,26.31,0,0,0,96.2,23.1a124.59,124.59,0,0,0-17.31,9.19c2.06-2.08,5.32-5.69,6.33-8.83,2.13-6.61-1.85-14.85-1.85-14.85s-6.91,4.47-7.91,11.11a26.76,26.76,0,0,0,1.47,13.84c-3.36,2.22-6.82,4.72-10.33,7.55C65,42.28,63.49,43.55,62,44.88c1.65-2.49,3.7-6.07,4.1-9,1-7-4.49-14.6-4.49-14.6s-6.15,5.71-6,12.57a27.54,27.54,0,0,0,3.75,13.35A113.15,113.15,0,0,0,46.87,61c1.17-2.76,2.45-6.48,2.35-9.32-.27-7.23-7.11-13.88-7.11-13.88S37,44.6,38.33,51.45a28.15,28.15,0,0,0,6.12,12.74,134.15,134.15,0,0,0-10,16.11c.71-3,1.39-7.11.77-10-1.56-7.22-9.6-12.68-9.6-12.68s-4,7.78-1.37,14.42a28.61,28.61,0,0,0,8.44,11.75,133.86,133.86,0,0,0-6.91,16.84c.14-3,0-6.85-1-9.45-2.83-7-11.89-11-11.89-11s-2.62,8.52,1.18,14.74a29.4,29.4,0,0,0,10.38,10.2,124.59,124.59,0,0,0-3.7,16.8,23.38,23.38,0,0,0-2.57-8.23c-4.08-6.5-13.9-9-13.9-9s-1.12,9,3.79,14.61a30,30,0,0,0,12,8.31,113.61,113.61,0,0,0-.46,16.84,23.51,23.51,0,0,0-4-7.67C10.3,130.92,0,130.16,0,130.16s.47,9.27,6.4,14A30.66,30.66,0,0,0,20,150.41a114.7,114.7,0,0,0,2.16,15.82,23.74,23.74,0,0,0-5.23-6.77C10.55,154.55.06,155.62.06,155.62S2.18,164.85,9,168.56a31.36,31.36,0,0,0,14.6,3.87,126.41,126.41,0,0,0,5.07,15.15,24.34,24.34,0,0,0-6.53-6c-7.23-3.81-17.58-.88-17.58-.88s3.76,8.9,11.25,11.42a31.84,31.84,0,0,0,15.4,1.3,133.66,133.66,0,0,0,7.66,14.18c-2.34-2-5.18-4.12-7.75-5-7.93-2.56-17.82,2.23-17.82,2.23s5.37,8.27,13.33,9.48A32.63,32.63,0,0,0,42.33,213a136.43,136.43,0,0,0,9.43,12.22,24,24,0,0,0-8-3.19c-8.42-1.16-17.51,5.39-17.51,5.39s6.86,7.37,15.08,7.18a33.37,33.37,0,0,0,15.26-4.07,121,121,0,0,0,10.86,10,23,23,0,0,0-7.83-1.53C51,239.24,43,247.44,43,247.44s8.2,6.19,16.42,4.53a34.16,34.16,0,0,0,14.49-6.68q3.94,2.72,7.88,4.9c1.66,1,3.31,1.92,4.93,2.79a24.15,24.15,0,0,0-8.48-.2c-8.65,1.86-15.21,11.51-15.21,11.51s9.34,4.77,17.31,1.65a34.82,34.82,0,0,0,13.46-9.39A131.85,131.85,0,0,0,107.35,262a24.1,24.1,0,0,0-8.4,1.29c-8.36,3.4-13.25,14.26-13.25,14.26s10.23,3.14,17.69-1.41a35.53,35.53,0,0,0,11.84-11.77A110.56,110.56,0,0,0,134.58,268l.21-2.15.22-2.15A112,112,0,0,1,119.58,261.12Zm166.83-92.56c6.79-3.71,8.91-12.94,8.91-12.94s-10.49-1.07-16.81,3.84a23.57,23.57,0,0,0-5.23,6.77,113.18,113.18,0,0,0,2.15-15.82A30.57,30.57,0,0,0,289,144.17c5.93-4.74,6.4-14,6.4-14s-10.31.76-15.57,6.57a23.61,23.61,0,0,0-4,7.67,115,115,0,0,0-.46-16.84,30.06,30.06,0,0,0,12-8.31c4.91-5.57,3.79-14.61,3.79-14.61s-9.82,2.49-13.91,9a23.58,23.58,0,0,0-2.56,8.23,124.59,124.59,0,0,0-3.7-16.8,29.4,29.4,0,0,0,10.38-10.2c3.8-6.22,1.18-14.74,1.18-14.74s-9.06,4.07-11.9,11c-1.05,2.6-1.17,6.4-1,9.45a133.81,133.81,0,0,0-6.9-16.84A28.61,28.61,0,0,0,271.12,72c2.61-6.64-1.37-14.42-1.37-14.42s-8,5.46-9.6,12.68c-.62,2.91.06,7,.77,10a135,135,0,0,0-10-16.11,28.06,28.06,0,0,0,6.11-12.74c1.38-6.85-3.77-13.69-3.77-13.69s-6.84,6.65-7.11,13.88c-.11,2.84,1.18,6.56,2.35,9.32a114,114,0,0,0-12.46-13.73,27.66,27.66,0,0,0,3.75-13.35c.16-6.86-6-12.57-6-12.57s-5.47,7.58-4.49,14.6c.4,2.9,2.45,6.48,4.1,9-1.54-1.33-3.09-2.6-4.65-3.77-3.51-2.83-7-5.33-10.34-7.55a26.59,26.59,0,0,0,1.48-13.84c-1-6.64-7.91-11.11-7.91-11.11s-4,8.24-1.85,14.85c1,3.14,4.26,6.75,6.33,8.83a124.09,124.09,0,0,0-17.32-9.19,26.15,26.15,0,0,0-.9-13.72C196.18,3.14,188.75,0,188.75,0s-2.44,8.64.74,14.65c1.61,3,5.8,6.2,8.08,7.76C194,21,190.89,19.86,188.26,19c-.79-1-4.66-5.6-9.39-6.42-3.78-.64-10.14,1.8-10.14,1.8a20.28,20.28,0,0,0,9.21,6.27c4.13,1.41,8.68-.55,10.06-1.23a121.26,121.26,0,0,1,11.68,4.72c-2.65-.45-8.05-1.15-11.43-.05-6.46,2.12-10.7,10-10.7,10S185.07,37,190.91,34a26,26,0,0,0,10.14-9.19,128.41,128.41,0,0,1,16.76,9.7c-2.78-.94-7.35-2.22-10.57-1.76-6.87,1-12.53,8.18-12.53,8.18s7,4.24,13.46,2.23a26.93,26.93,0,0,0,11.66-7.25c2.65,1.89,5.36,3.95,8.1,6.24a92,92,0,0,1,7.25,6.29c-2.61-1.45-7.07-3.61-10.43-3.72-7.09-.23-14.05,6-14.05,6s6.34,5.5,13.13,4.61a27.27,27.27,0,0,0,13-5.24,117.24,117.24,0,0,1,12.29,14.63c-2.42-1.89-6.09-4.4-9.15-5-7.08-1.49-15.18,3.54-15.18,3.54s5.39,6.66,12.38,7A28,28,0,0,0,251,67.37a132.42,132.42,0,0,1,9.2,15.91c-2.08-2.23-5-4.93-7.66-6-6.84-2.75-15.87.88-15.87.88s4.23,7.64,11.2,9.19A28.74,28.74,0,0,0,261.94,87a131,131,0,0,1,6.37,17.16c-1.7-2.6-4.12-5.79-6.6-7.34-6.39-4-16.11-1.94-16.11-1.94s2.9,8.44,9.63,11.23a29.31,29.31,0,0,0,14.22,2.17,121.71,121.71,0,0,1,3.27,18.29c-1.24-3-3.17-6.77-5.46-8.82-5.72-5.13-15.85-4.8-15.85-4.8s1.43,9,7.69,13a29.77,29.77,0,0,0,14,4.7,112.37,112.37,0,0,1-.23,17.58c-.75-3.08-1.95-6.82-3.75-9.11C264.24,133,254,131.49,254,131.49s-.17,9.28,5.42,14.41a30.53,30.53,0,0,0,13,7.14,112.65,112.65,0,0,1-3,16.64c-.21-3.21-.77-7.13-2.15-9.72-3.77-7.05-13.79-10.34-13.79-10.34s-1.82,9.3,2.89,15.44a31.35,31.35,0,0,0,11.69,9.44,123.31,123.31,0,0,1-5.68,15.16c.31-3.14.39-6.87-.49-9.54-2.54-7.76-12-12.84-12-12.84s-3.47,9,.17,16A32,32,0,0,0,260,194.77a135.64,135.64,0,0,1-7.91,13.6c.8-3,1.44-6.51,1.06-9.21-1.18-8.24-9.81-15-9.81-15s-5.09,8.46-2.68,16.14a32.44,32.44,0,0,0,7.87,13.18A130.73,130.73,0,0,1,238.09,226c1.42-3,2.82-6.59,2.92-9.52.27-8.49-7.21-16.84-7.21-16.84s-6.6,7.59-5.54,15.74a33.32,33.32,0,0,0,5.68,14.8,111.91,111.91,0,0,1-12.6,10.54c2-2.76,4.11-6.22,4.73-9.2,1.78-8.49-4.26-18.21-4.26-18.21s-8,6.46-8.35,14.84A33.87,33.87,0,0,0,216.52,244c-1.65,1-3.29,2-4.93,2.89-3,1.75-5.89,3.29-8.73,4.67,2.34-2.33,4.79-5.22,5.87-7.9,3.29-8.22-1-19-1-19s-9.17,5.08-11,13.43a34.69,34.69,0,0,0,.22,16.26,123.71,123.71,0,0,1-14.43,5.15c2.73-1.92,5.64-4.35,7.18-6.82,4.76-7.68,2.32-19.33,2.32-19.33s-10.11,3.48-13.46,11.54a35.55,35.55,0,0,0-2.67,16.31,112,112,0,0,1-15.43,2.58l.22,2.15.22,2.15a110.56,110.56,0,0,0,19.34-3.64A35.33,35.33,0,0,0,192,276.13c7.46,4.55,17.68,1.41,17.68,1.41s-4.88-10.86-13.25-14.26A24.06,24.06,0,0,0,188,262a131.06,131.06,0,0,0,13.54-5.44A34.82,34.82,0,0,0,215,265.94c8,3.12,17.31-1.65,17.31-1.65s-6.57-9.65-15.22-11.51a24.16,24.16,0,0,0-8.48.2c1.63-.87,3.27-1.8,4.94-2.79a92.19,92.19,0,0,0,7.87-4.9A34.16,34.16,0,0,0,235.94,252c8.23,1.66,16.43-4.53,16.43-4.53s-8-8.2-16.65-8.52a23,23,0,0,0-7.82,1.53,121,121,0,0,0,10.86-10A33.33,33.33,0,0,0,254,234.55c8.22.19,15.08-7.18,15.08-7.18S260,220.82,251.59,222a24,24,0,0,0-8,3.19A136.43,136.43,0,0,0,253.06,213a32.63,32.63,0,0,0,15.72,1.43c8-1.21,13.33-9.48,13.33-9.48s-9.89-4.79-17.82-2.23c-2.57.83-5.41,2.92-7.75,5a133.66,133.66,0,0,0,7.66-14.18,31.84,31.84,0,0,0,15.4-1.3c7.48-2.52,11.25-11.42,11.25-11.42s-10.36-2.93-17.58.88a24.37,24.37,0,0,0-6.54,6,124.66,124.66,0,0,0,5.07-15.15A31.36,31.36,0,0,0,286.41,168.56Z"/><path class="cls-1" d="M102.85,88.15V67.74h4.23a21.59,21.59,0,0,1,6.65.74,8.84,8.84,0,0,1,4.64,3.6A11,11,0,0,1,120,78.2a10.75,10.75,0,0,1-1.32,5.4A8.5,8.5,0,0,1,115.28,87a13,13,0,0,1-5.94,1.11Zm2-1.93h2.36A22.17,22.17,0,0,0,113,85.7a6.79,6.79,0,0,0,3.62-2.7A8.28,8.28,0,0,0,118,78.24a8.77,8.77,0,0,0-1.43-5,7.25,7.25,0,0,0-4-2.87,24,24,0,0,0-6.31-.58h-1.44Z"/><path class="cls-1" d="M132.34,67.74l9.52,20.41h-2.21l-3.21-6.71h-8.79l-3.18,6.71h-2.28l9.65-20.41Zm-.26,4.34-3.5,7.39h7Z"/><path class="cls-1" d="M143.47,67.74h2.22l6.76,15.77,6.88-15.77h2.22l-8.88,20.41h-.45Z"/><path class="cls-1" d="M165,67.74h11.7v2H167v6.4h9.57v2H167v8h9.57v2H165Z"/><path class="cls-1" d="M178.6,67.74H181l5.22,8.42,5.14-8.42h2.36L187.2,78.4v9.75h-2V78.4Z"/><path class="cls-1" d="M104.42,97.84l9.52,20.41h-2.21l-3.21-6.71H99.73l-3.18,6.71H94.28l9.64-20.41Zm-.26,4.34-3.5,7.39h7Z"/><path class="cls-1" d="M116,97.84H118l4.17,14.71,5.86-14.71h.42l5.78,14.71,4.24-14.71h2.08l-5.86,20.41h-.38l-6.06-15.44-6.17,15.44h-.38Z"/><path class="cls-1" d="M152.72,97.84l9.52,20.41H160l-3.21-6.71H148l-3.18,6.71h-2.27l9.64-20.41Zm-.26,4.34L149,109.57h7Z"/><path class="cls-1" d="M165.51,97.84h4.07a25.11,25.11,0,0,1,4.61.28,5.23,5.23,0,0,1,2.95,1.79,5.07,5.07,0,0,1,1.14,3.37,5.46,5.46,0,0,1-.78,2.93,5,5,0,0,1-2.24,1.91,10.39,10.39,0,0,1-4,.66l7.34,9.47h-2.52l-7.34-9.47h-1.16v9.47h-2Zm2,2v6.94l3.52,0a8.69,8.69,0,0,0,3-.39,3.09,3.09,0,0,0,1.53-1.24,3.44,3.44,0,0,0,.55-1.91,3.31,3.31,0,0,0-.55-1.87,3.15,3.15,0,0,0-1.46-1.2,9,9,0,0,0-3-.36Z"/><path class="cls-1" d="M182.65,118.25V97.84h4.23a21.59,21.59,0,0,1,6.65.74,8.85,8.85,0,0,1,4.64,3.61,10.91,10.91,0,0,1,1.67,6.12,10.74,10.74,0,0,1-1.32,5.39,8.52,8.52,0,0,1-3.44,3.45,13.11,13.11,0,0,1-5.93,1.1Zm2-1.92H187a22.06,22.06,0,0,0,5.87-.53,6.79,6.79,0,0,0,3.62-2.7,8.28,8.28,0,0,0,1.32-4.76,8.77,8.77,0,0,0-1.43-5,7.25,7.25,0,0,0-4-2.87,24.42,24.42,0,0,0-6.31-.58h-1.44Z"/><path class="cls-1" d="M108.76,139.52l-3.7,3.26q-1.94-2.72-4-2.71a2.39,2.39,0,0,0-1.6.52,1.55,1.55,0,0,0-.63,1.19,2,2,0,0,0,.45,1.25,33.21,33.21,0,0,0,3.66,3.36c1.9,1.59,3,2.6,3.46,3a10.63,10.63,0,0,1,2.15,2.93,7.35,7.35,0,0,1,.63,3.06,7,7,0,0,1-2.23,5.32,8.13,8.13,0,0,1-5.81,2.1,8.62,8.62,0,0,1-4.88-1.37,10.77,10.77,0,0,1-3.55-4.31l4.19-2.53c1.26,2.32,2.71,3.47,4.35,3.47a3.2,3.2,0,0,0,2.16-.74,2.24,2.24,0,0,0,.87-1.73,3,3,0,0,0-.66-1.78,19,19,0,0,0-2.91-2.73,29.66,29.66,0,0,1-5.53-5.38A6.89,6.89,0,0,1,94,141.92a6.21,6.21,0,0,1,2.08-4.67,7.23,7.23,0,0,1,5.13-1.95,8.11,8.11,0,0,1,3.73.9A13.54,13.54,0,0,1,108.76,139.52Z"/><path class="cls-1" d="M113.62,136h4.95v26.19h-4.95Z"/><path class="cls-1" d="M124.18,136h5V157.4h7.26v4.75H124.18Z"/><path class="cls-1" d="M138.24,136h5.13L150,154.57,156.65,136h5.12l-9.44,26.19h-4.81Z"/><path class="cls-1" d="M165.78,136h14.3v4.87h-9.35v4.74h9.35v4.79h-9.35v6.9h9.35v4.89h-14.3Z"/><path class="cls-1" d="M185.07,136h5.28a17.45,17.45,0,0,1,6.19.77,6.39,6.39,0,0,1,3,2.57,8,8,0,0,1,1.12,4.26,7.23,7.23,0,0,1-1.24,4.32,7.52,7.52,0,0,1-3.73,2.63l6.21,11.64H196.4l-5.89-11.09h-.45v11.09h-5Zm5,10.24h1.56a6.08,6.08,0,0,0,3.28-.63,2.37,2.37,0,0,0,.89-2.07,2.57,2.57,0,0,0-.44-1.49,2.47,2.47,0,0,0-1.19-.92,9.28,9.28,0,0,0-2.74-.27h-1.36Z"/><path class="cls-1" d="M91.7,173.4h5.06l10.07,26.2h-5.18l-2.05-5.4H88.91l-2.13,5.4H81.6Zm2.56,6.95-3.52,9h7Z"/><path class="cls-1" d="M108.7,173.4h4.91l3.78,16.73,4.68-16.73h4.15L131,190.13l3.75-16.73h4.91l-5.9,26.2h-4.79l-4.82-16.94-4.74,16.94h-4.74Z"/><path class="cls-1" d="M151.5,173.4h5.06l10.08,26.2h-5.19l-2-5.4H148.71l-2.13,5.4H141.4Zm2.56,6.95-3.51,9h7Z"/><path class="cls-1" d="M170.83,173.4h5.28a17.39,17.39,0,0,1,6.19.78,6.33,6.33,0,0,1,3,2.57,7.87,7.87,0,0,1,1.12,4.26,7.23,7.23,0,0,1-1.24,4.32,7.51,7.51,0,0,1-3.73,2.62l6.21,11.65h-5.45l-5.9-11.09h-.45V199.6h-5Zm5,10.24h1.56a6.19,6.19,0,0,0,3.28-.62,2.37,2.37,0,0,0,.89-2.07,2.6,2.6,0,0,0-.44-1.5,2.52,2.52,0,0,0-1.19-.91,9.16,9.16,0,0,0-2.73-.28h-1.37Z"/><path class="cls-1" d="M191.67,173.4h5.91q5.7,0,8.48,1.42a11,11,0,0,1,4.58,4.6,16.1,16.1,0,0,1,.79,13,11.51,11.51,0,0,1-2.78,4.21,9.83,9.83,0,0,1-3.83,2.32,27.21,27.21,0,0,1-7.15.64h-6Zm5,4.81v16.53h2.32a11.51,11.51,0,0,0,5-.79,6,6,0,0,0,2.52-2.63,9.74,9.74,0,0,0,1-4.57,8.66,8.66,0,0,0-2.34-6.47q-2.1-2.07-6.75-2.07Z"/></g></g></svg>